<?xml version="1.0" encoding="UTF-8" standalone="no"?><svg xmlns="http://www.w3.org/2000/svg" xmlns:xlink="http://www.w3.org/1999/xlink" contentScriptType="application/ecmascript" contentStyleType="text/css" height="773px" preserveAspectRatio="none" style="width:1210px;height:773px;" version="1.1" viewBox="0 0 1210 773" width="1210px" zoomAndPan="magnify"><defs><filter height="300%" id="f1r4c0zmx6685b" width="300%" x="-1" y="-1"><feGaussianBlur result="blurOut" stdDeviation="2.0"/><feColorMatrix in="blurOut" result="blurOut2" type="matrix" values="0 0 0 0 0 0 0 0 0 0 0 0 0 0 0 0 0 0 .4 0"/><feOffset dx="4.0" dy="4.0" in="blurOut2" result="blurOut3"/><feBlend in="SourceGraphic" in2="blurOut3" mode="normal"/></filter></defs><g><!--class Building--><rect fill="#FEFECE" filter="url(#f1r4c0zmx6685b)" height="91.9453" id="Building" style="stroke: #A80036; stroke-width: 1.5;" width="200" x="444.5" y="671"/><ellipse cx="512.25" cy="687" fill="#ADD1B2" rx="11" ry="11" style="stroke: #A80036; stroke-width: 1.0;"/><path d="M514.5938,682.6719 L514.7656,682.75 C514.9844,682.4375 515.1875,682.3438 515.4844,682.3438 C515.7813,682.3438 516.0625,682.4844 516.2188,682.75 C516.3125,682.9063 516.3281,683.0313 516.3281,683.4688 L516.3281,684.8906 C516.3281,685.3125 516.2969,685.5 516.1875,685.6563 C516.0156,685.875 515.75,686.0156 515.4844,686.0156 C515.2656,686.0156 515.0313,685.9063 514.8906,685.7656 C514.75,685.6406 514.7188,685.5156 514.6563,685.1094 C514.5625,684.7031 514.3906,684.4844 513.9063,684.2031 C513.4375,683.9531 512.8281,683.7969 512.25,683.7969 C510.5156,683.7969 509.2656,685.1094 509.2656,686.8906 L509.2656,687.9844 C509.2656,689.6875 510.5625,690.7813 512.6094,690.7813 C513.375,690.7813 514.0625,690.6563 514.4844,690.3906 C514.6719,690.2969 514.6719,690.2969 515.125,689.8125 C515.3125,689.625 515.5156,689.5469 515.7344,689.5469 C516.2031,689.5469 516.5938,689.9375 516.5938,690.3906 C516.5938,690.7813 516.2656,691.2344 515.6875,691.6406 C514.9375,692.1875 513.7813,692.4844 512.5625,692.4844 C509.6719,692.4844 507.5625,690.5938 507.5625,688.0156 L507.5625,686.8906 C507.5625,684.1719 509.5625,682.0938 512.1875,682.0938 C513.0625,682.0938 513.6563,682.2344 514.5938,682.6719 Z "/><text fill="#000000" font-family="Courier" font-size="12" lengthAdjust="spacingAndGlyphs" textLength="56" x="532.75" y="692.2711">Building</text><line style="stroke: #A80036; stroke-width: 1.5;" x1="445.5" x2="643.5" y1="703" y2="703"/><text fill="#000000" font-family="Courier" font-size="11" lengthAdjust="spacingAndGlyphs" textLength="123" x="450.5" y="717.3217">INTEGER      ★ id</text><text fill="#000000" font-family="Courier" font-size="11" lengthAdjust="spacingAndGlyphs" textLength="188" x="450.5" y="728.308">BOOLEAN      ⚪ availability</text><text fill="#000000" font-family="Courier" font-size="11" lengthAdjust="spacingAndGlyphs" textLength="132" x="450.5" y="739.2943">VARCHAR[40]  ⚪ code</text><text fill="#000000" font-family="Courier" font-size="11" lengthAdjust="spacingAndGlyphs" textLength="181" x="450.5" y="750.2806">VARCHAR[150] ⚪ description</text><line style="stroke: #A80036; stroke-width: 1.5;" x1="445.5" x2="643.5" y1="754.9453" y2="754.9453"/><!--class Floor--><rect fill="#FEFECE" filter="url(#f1r4c0zmx6685b)" height="113.918" id="Floor" style="stroke: #A80036; stroke-width: 1.5;" width="214" x="567.5" y="483"/><ellipse cx="652.75" cy="499" fill="#ADD1B2" rx="11" ry="11" style="stroke: #A80036; stroke-width: 1.0;"/><path d="M655.0938,494.6719 L655.2656,494.75 C655.4844,494.4375 655.6875,494.3438 655.9844,494.3438 C656.2813,494.3438 656.5625,494.4844 656.7188,494.75 C656.8125,494.9063 656.8281,495.0313 656.8281,495.4688 L656.8281,496.8906 C656.8281,497.3125 656.7969,497.5 656.6875,497.6563 C656.5156,497.875 656.25,498.0156 655.9844,498.0156 C655.7656,498.0156 655.5313,497.9063 655.3906,497.7656 C655.25,497.6406 655.2188,497.5156 655.1563,497.1094 C655.0625,496.7031 654.8906,496.4844 654.4063,496.2031 C653.9375,495.9531 653.3281,495.7969 652.75,495.7969 C651.0156,495.7969 649.7656,497.1094 649.7656,498.8906 L649.7656,499.9844 C649.7656,501.6875 651.0625,502.7813 653.1094,502.7813 C653.875,502.7813 654.5625,502.6563 654.9844,502.3906 C655.1719,502.2969 655.1719,502.2969 655.625,501.8125 C655.8125,501.625 656.0156,501.5469 656.2344,501.5469 C656.7031,501.5469 657.0938,501.9375 657.0938,502.3906 C657.0938,502.7813 656.7656,503.2344 656.1875,503.6406 C655.4375,504.1875 654.2813,504.4844 653.0625,504.4844 C650.1719,504.4844 648.0625,502.5938 648.0625,500.0156 L648.0625,498.8906 C648.0625,496.1719 650.0625,494.0938 652.6875,494.0938 C653.5625,494.0938 654.1563,494.2344 655.0938,494.6719 Z "/><text fill="#000000" font-family="Courier" font-size="12" lengthAdjust="spacingAndGlyphs" textLength="35" x="673.25" y="504.2711">Floor</text><line style="stroke: #A80036; stroke-width: 1.5;" x1="568.5" x2="780.5" y1="515" y2="515"/><text fill="#000000" font-family="Courier" font-size="11" lengthAdjust="spacingAndGlyphs" textLength="123" x="587.5" y="529.3217">INTEGER      ★ id</text><text fill="#000000" font-family="Courier" font-size="11" lengthAdjust="spacingAndGlyphs" textLength="186" x="587.5" y="540.308">INTEGER      ☆ building_id</text><text fill="#000000" font-family="Courier" font-size="11" lengthAdjust="spacingAndGlyphs" textLength="188" x="587.5" y="551.2943">BOOLEAN      ⚪ availability</text><text fill="#000000" font-family="Courier" font-size="11" lengthAdjust="spacingAndGlyphs" textLength="132" x="587.5" y="562.2806">VARCHAR[250] ⚪ code</text><text fill="#000000" font-family="Courier" font-size="11" lengthAdjust="spacingAndGlyphs" textLength="181" x="587.5" y="573.267">VARCHAR[150] ⚪ description</text><ellipse cx="578.5" cy="580.9316" fill="none" rx="3" ry="3" style="stroke: #038048; stroke-width: 1.0;"/><text fill="#000000" font-family="Courier" font-size="11" lengthAdjust="spacingAndGlyphs" textLength="56" x="587.5" y="584.2601">building</text><line style="stroke: #A80036; stroke-width: 1.5;" x1="568.5" x2="780.5" y1="588.918" y2="588.918"/><!--class Location--><rect fill="#FEFECE" filter="url(#f1r4c0zmx6685b)" height="212.7949" id="Location" style="stroke: #A80036; stroke-width: 1.5;" width="242" x="714.5" y="196"/><ellipse cx="803.25" cy="212" fill="#ADD1B2" rx="11" ry="11" style="stroke: #A80036; stroke-width: 1.0;"/><path d="M805.5938,207.6719 L805.7656,207.75 C805.9844,207.4375 806.1875,207.3438 806.4844,207.3438 C806.7813,207.3438 807.0625,207.4844 807.2188,207.75 C807.3125,207.9063 807.3281,208.0313 807.3281,208.4688 L807.3281,209.8906 C807.3281,210.3125 807.2969,210.5 807.1875,210.6563 C807.0156,210.875 806.75,211.0156 806.4844,211.0156 C806.2656,211.0156 806.0313,210.9063 805.8906,210.7656 C805.75,210.6406 805.7188,210.5156 805.6563,210.1094 C805.5625,209.7031 805.3906,209.4844 804.9063,209.2031 C804.4375,208.9531 803.8281,208.7969 803.25,208.7969 C801.5156,208.7969 800.2656,210.1094 800.2656,211.8906 L800.2656,212.9844 C800.2656,214.6875 801.5625,215.7813 803.6094,215.7813 C804.375,215.7813 805.0625,215.6563 805.4844,215.3906 C805.6719,215.2969 805.6719,215.2969 806.125,214.8125 C806.3125,214.625 806.5156,214.5469 806.7344,214.5469 C807.2031,214.5469 807.5938,214.9375 807.5938,215.3906 C807.5938,215.7813 807.2656,216.2344 806.6875,216.6406 C805.9375,217.1875 804.7813,217.4844 803.5625,217.4844 C800.6719,217.4844 798.5625,215.5938 798.5625,213.0156 L798.5625,211.8906 C798.5625,209.1719 800.5625,207.0938 803.1875,207.0938 C804.0625,207.0938 804.6563,207.2344 805.5938,207.6719 Z "/><text fill="#000000" font-family="Courier" font-size="12" lengthAdjust="spacingAndGlyphs" textLength="56" x="823.75" y="217.2711">Location</text><line style="stroke: #A80036; stroke-width: 1.5;" x1="715.5" x2="955.5" y1="228" y2="228"/><text fill="#000000" font-family="Courier" font-size="11" lengthAdjust="spacingAndGlyphs" textLength="123" x="734.5" y="242.3217">INTEGER      ★ id</text><text fill="#000000" font-family="Courier" font-size="11" lengthAdjust="spacingAndGlyphs" textLength="165" x="734.5" y="253.308">INTEGER      ☆ floor_id</text><text fill="#000000" font-family="Courier" font-size="11" lengthAdjust="spacingAndGlyphs" textLength="188" x="734.5" y="264.2943">BOOLEAN      ⚪ aircondition</text><text fill="#000000" font-family="Courier" font-size="11" lengthAdjust="spacingAndGlyphs" textLength="188" x="734.5" y="275.2806">BOOLEAN      ⚪ availability</text><text fill="#000000" font-family="Courier" font-size="11" lengthAdjust="spacingAndGlyphs" textLength="139" x="734.5" y="286.267">BOOLEAN      ⚪ board</text><text fill="#000000" font-family="Courier" font-size="11" lengthAdjust="spacingAndGlyphs" textLength="132" x="734.5" y="297.2533">VARCHAR[250] ⚪ code</text><text fill="#000000" font-family="Courier" font-size="11" lengthAdjust="spacingAndGlyphs" textLength="139" x="734.5" y="308.2396">INTEGER      ⚪ color</text><text fill="#000000" font-family="Courier" font-size="11" lengthAdjust="spacingAndGlyphs" textLength="160" x="734.5" y="319.226">BOOLEAN      ⚪ datashow</text><text fill="#000000" font-family="Courier" font-size="11" lengthAdjust="spacingAndGlyphs" textLength="181" x="734.5" y="330.2123">VARCHAR[150] ⚪ description</text><text fill="#000000" font-family="Courier" font-size="11" lengthAdjust="spacingAndGlyphs" textLength="195" x="734.5" y="341.1986">INTEGER      ⚪ exam_capacity</text><text fill="#000000" font-family="Courier" font-size="11" lengthAdjust="spacingAndGlyphs" textLength="216" x="734.5" y="352.1849">INTEGER      ⚪ regular_capacity</text><ellipse cx="725.5" cy="359.8496" fill="none" rx="3" ry="3" style="stroke: #038048; stroke-width: 1.0;"/><text fill="#000000" font-family="Courier" font-size="11" lengthAdjust="spacingAndGlyphs" textLength="63" x="734.5" y="363.1781">compnents</text><ellipse cx="725.5" cy="370.8496" fill="none" rx="3" ry="3" style="stroke: #038048; stroke-width: 1.0;"/><text fill="#000000" font-family="Courier" font-size="11" lengthAdjust="spacingAndGlyphs" textLength="35" x="734.5" y="374.1781">floor</text><ellipse cx="725.5" cy="381.8496" fill="none" rx="3" ry="3" style="stroke: #038048; stroke-width: 1.0;"/><text fill="#000000" font-family="Courier" font-size="11" lengthAdjust="spacingAndGlyphs" textLength="35" x="734.5" y="385.1781">roles</text><ellipse cx="725.5" cy="392.8496" fill="none" rx="3" ry="3" style="stroke: #038048; stroke-width: 1.0;"/><text fill="#000000" font-family="Courier" font-size="11" lengthAdjust="spacingAndGlyphs" textLength="56" x="734.5" y="396.1781">subjects</text><line style="stroke: #A80036; stroke-width: 1.5;" x1="715.5" x2="955.5" y1="400.7949" y2="400.7949"/><!--class Component--><rect fill="#FEFECE" filter="url(#f1r4c0zmx6685b)" height="80.959" id="Component" style="stroke: #A80036; stroke-width: 1.5;" width="158" x="521.5" y="262"/><ellipse cx="564.85" cy="278" fill="#ADD1B2" rx="11" ry="11" style="stroke: #A80036; stroke-width: 1.0;"/><path d="M567.1938,273.6719 L567.3656,273.75 C567.5844,273.4375 567.7875,273.3438 568.0844,273.3438 C568.3813,273.3438 568.6625,273.4844 568.8188,273.75 C568.9125,273.9063 568.9281,274.0313 568.9281,274.4688 L568.9281,275.8906 C568.9281,276.3125 568.8969,276.5 568.7875,276.6563 C568.6156,276.875 568.35,277.0156 568.0844,277.0156 C567.8656,277.0156 567.6313,276.9063 567.4906,276.7656 C567.35,276.6406 567.3188,276.5156 567.2563,276.1094 C567.1625,275.7031 566.9906,275.4844 566.5063,275.2031 C566.0375,274.9531 565.4281,274.7969 564.85,274.7969 C563.1156,274.7969 561.8656,276.1094 561.8656,277.8906 L561.8656,278.9844 C561.8656,280.6875 563.1625,281.7813 565.2094,281.7813 C565.975,281.7813 566.6625,281.6563 567.0844,281.3906 C567.2719,281.2969 567.2719,281.2969 567.725,280.8125 C567.9125,280.625 568.1156,280.5469 568.3344,280.5469 C568.8031,280.5469 569.1938,280.9375 569.1938,281.3906 C569.1938,281.7813 568.8656,282.2344 568.2875,282.6406 C567.5375,283.1875 566.3813,283.4844 565.1625,283.4844 C562.2719,283.4844 560.1625,281.5938 560.1625,279.0156 L560.1625,277.8906 C560.1625,275.1719 562.1625,273.0938 564.7875,273.0938 C565.6625,273.0938 566.2563,273.2344 567.1938,273.6719 Z "/><text fill="#000000" font-family="Courier" font-size="12" lengthAdjust="spacingAndGlyphs" textLength="63" x="585.15" y="283.2711">Component</text><line style="stroke: #A80036; stroke-width: 1.5;" x1="522.5" x2="678.5" y1="294" y2="294"/><text fill="#000000" font-family="Courier" font-size="11" lengthAdjust="spacingAndGlyphs" textLength="123" x="541.5" y="308.3217">INTEGER      ★ id</text><text fill="#000000" font-family="Courier" font-size="11" lengthAdjust="spacingAndGlyphs" textLength="132" x="541.5" y="319.308">VARCHAR[150] ⚪ name</text><ellipse cx="532.5" cy="326.9727" fill="none" rx="3" ry="3" style="stroke: #038048; stroke-width: 1.0;"/><text fill="#000000" font-family="Courier" font-size="11" lengthAdjust="spacingAndGlyphs" textLength="63" x="541.5" y="330.3011">locations</text><line style="stroke: #A80036; stroke-width: 1.5;" x1="522.5" x2="678.5" y1="334.959" y2="334.959"/><!--class component_location--><rect fill="#FEFECE" filter="url(#f1r4c0zmx6685b)" height="69.9727" id="component_location" style="stroke: #A80036; stroke-width: 1.5;" width="170" x="548.5" y="30"/><ellipse cx="568.9" cy="46" fill="#ADD1B2" rx="11" ry="11" style="stroke: #A80036; stroke-width: 1.0;"/><path d="M571.2438,41.6719 L571.4156,41.75 C571.6344,41.4375 571.8375,41.3438 572.1344,41.3438 C572.4313,41.3438 572.7125,41.4844 572.8688,41.75 C572.9625,41.9063 572.9781,42.0313 572.9781,42.4688 L572.9781,43.8906 C572.9781,44.3125 572.9469,44.5 572.8375,44.6563 C572.6656,44.875 572.4,45.0156 572.1344,45.0156 C571.9156,45.0156 571.6813,44.9063 571.5406,44.7656 C571.4,44.6406 571.3688,44.5156 571.3063,44.1094 C571.2125,43.7031 571.0406,43.4844 570.5563,43.2031 C570.0875,42.9531 569.4781,42.7969 568.9,42.7969 C567.1656,42.7969 565.9156,44.1094 565.9156,45.8906 L565.9156,46.9844 C565.9156,48.6875 567.2125,49.7813 569.2594,49.7813 C570.025,49.7813 570.7125,49.6563 571.1344,49.3906 C571.3219,49.2969 571.3219,49.2969 571.775,48.8125 C571.9625,48.625 572.1656,48.5469 572.3844,48.5469 C572.8531,48.5469 573.2438,48.9375 573.2438,49.3906 C573.2438,49.7813 572.9156,50.2344 572.3375,50.6406 C571.5875,51.1875 570.4313,51.4844 569.2125,51.4844 C566.3219,51.4844 564.2125,49.5938 564.2125,47.0156 L564.2125,45.8906 C564.2125,43.1719 566.2125,41.0938 568.8375,41.0938 C569.7125,41.0938 570.3063,41.2344 571.2438,41.6719 Z "/><text fill="#000000" font-family="Courier" font-size="12" lengthAdjust="spacingAndGlyphs" textLength="126" x="584.1" y="51.2711">component_location</text><line style="stroke: #A80036; stroke-width: 1.5;" x1="549.5" x2="717.5" y1="62" y2="62"/><text fill="#000000" font-family="Courier" font-size="11" lengthAdjust="spacingAndGlyphs" textLength="158" x="554.5" y="76.3217">INTEGER ☆ component_id</text><text fill="#000000" font-family="Courier" font-size="11" lengthAdjust="spacingAndGlyphs" textLength="151" x="554.5" y="87.308">INTEGER ☆ location_id</text><line style="stroke: #A80036; stroke-width: 1.5;" x1="549.5" x2="717.5" y1="91.9727" y2="91.9727"/><!--class Department--><rect fill="#FEFECE" filter="url(#f1r4c0zmx6685b)" height="102.9316" id="Department" style="stroke: #A80036; stroke-width: 1.5;" width="212" x="267.5" y="488.5"/><ellipse cx="334.25" cy="504.5" fill="#ADD1B2" rx="11" ry="11" style="stroke: #A80036; stroke-width: 1.0;"/><path d="M336.5938,500.1719 L336.7656,500.25 C336.9844,499.9375 337.1875,499.8438 337.4844,499.8438 C337.7813,499.8438 338.0625,499.9844 338.2188,500.25 C338.3125,500.4063 338.3281,500.5313 338.3281,500.9688 L338.3281,502.3906 C338.3281,502.8125 338.2969,503 338.1875,503.1563 C338.0156,503.375 337.75,503.5156 337.4844,503.5156 C337.2656,503.5156 337.0313,503.4063 336.8906,503.2656 C336.75,503.1406 336.7188,503.0156 336.6563,502.6094 C336.5625,502.2031 336.3906,501.9844 335.9063,501.7031 C335.4375,501.4531 334.8281,501.2969 334.25,501.2969 C332.5156,501.2969 331.2656,502.6094 331.2656,504.3906 L331.2656,505.4844 C331.2656,507.1875 332.5625,508.2813 334.6094,508.2813 C335.375,508.2813 336.0625,508.1563 336.4844,507.8906 C336.6719,507.7969 336.6719,507.7969 337.125,507.3125 C337.3125,507.125 337.5156,507.0469 337.7344,507.0469 C338.2031,507.0469 338.5938,507.4375 338.5938,507.8906 C338.5938,508.2813 338.2656,508.7344 337.6875,509.1406 C336.9375,509.6875 335.7813,509.9844 334.5625,509.9844 C331.6719,509.9844 329.5625,508.0938 329.5625,505.5156 L329.5625,504.3906 C329.5625,501.6719 331.5625,499.5938 334.1875,499.5938 C335.0625,499.5938 335.6563,499.7344 336.5938,500.1719 Z "/><text fill="#000000" font-family="Courier" font-size="12" lengthAdjust="spacingAndGlyphs" textLength="70" x="354.75" y="509.7711">Department</text><line style="stroke: #A80036; stroke-width: 1.5;" x1="268.5" x2="478.5" y1="520.5" y2="520.5"/><text fill="#000000" font-family="Courier" font-size="11" lengthAdjust="spacingAndGlyphs" textLength="123" x="287.5" y="534.8217">INTEGER      ★ id</text><text fill="#000000" font-family="Courier" font-size="11" lengthAdjust="spacingAndGlyphs" textLength="186" x="287.5" y="545.808">INTEGER      ☆ building_id</text><text fill="#000000" font-family="Courier" font-size="11" lengthAdjust="spacingAndGlyphs" textLength="132" x="287.5" y="556.7943">VARCHAR[250] ⚪ code</text><text fill="#000000" font-family="Courier" font-size="11" lengthAdjust="spacingAndGlyphs" textLength="132" x="287.5" y="567.7806">VARCHAR[150] ⚪ name</text><ellipse cx="278.5" cy="575.4453" fill="none" rx="3" ry="3" style="stroke: #038048; stroke-width: 1.0;"/><text fill="#000000" font-family="Courier" font-size="11" lengthAdjust="spacingAndGlyphs" textLength="56" x="287.5" y="578.7738">building</text><line style="stroke: #A80036; stroke-width: 1.5;" x1="268.5" x2="478.5" y1="583.4316" y2="583.4316"/><!--class Staff--><rect fill="#FEFECE" filter="url(#f1r4c0zmx6685b)" height="102.9316" id="Staff" style="stroke: #A80036; stroke-width: 1.5;" width="226" x="260.5" y="251"/><ellipse cx="351.75" cy="267" fill="#ADD1B2" rx="11" ry="11" style="stroke: #A80036; stroke-width: 1.0;"/><path d="M354.0938,262.6719 L354.2656,262.75 C354.4844,262.4375 354.6875,262.3438 354.9844,262.3438 C355.2813,262.3438 355.5625,262.4844 355.7188,262.75 C355.8125,262.9063 355.8281,263.0313 355.8281,263.4688 L355.8281,264.8906 C355.8281,265.3125 355.7969,265.5 355.6875,265.6563 C355.5156,265.875 355.25,266.0156 354.9844,266.0156 C354.7656,266.0156 354.5313,265.9063 354.3906,265.7656 C354.25,265.6406 354.2188,265.5156 354.1563,265.1094 C354.0625,264.7031 353.8906,264.4844 353.4063,264.2031 C352.9375,263.9531 352.3281,263.7969 351.75,263.7969 C350.0156,263.7969 348.7656,265.1094 348.7656,266.8906 L348.7656,267.9844 C348.7656,269.6875 350.0625,270.7813 352.1094,270.7813 C352.875,270.7813 353.5625,270.6563 353.9844,270.3906 C354.1719,270.2969 354.1719,270.2969 354.625,269.8125 C354.8125,269.625 355.0156,269.5469 355.2344,269.5469 C355.7031,269.5469 356.0938,269.9375 356.0938,270.3906 C356.0938,270.7813 355.7656,271.2344 355.1875,271.6406 C354.4375,272.1875 353.2813,272.4844 352.0625,272.4844 C349.1719,272.4844 347.0625,270.5938 347.0625,268.0156 L347.0625,266.8906 C347.0625,264.1719 349.0625,262.0938 351.6875,262.0938 C352.5625,262.0938 353.1563,262.2344 354.0938,262.6719 Z "/><text fill="#000000" font-family="Courier" font-size="12" lengthAdjust="spacingAndGlyphs" textLength="35" x="372.25" y="272.2711">Staff</text><line style="stroke: #A80036; stroke-width: 1.5;" x1="261.5" x2="485.5" y1="283" y2="283"/><text fill="#000000" font-family="Courier" font-size="11" lengthAdjust="spacingAndGlyphs" textLength="123" x="280.5" y="297.3217">INTEGER      ★ id</text><text fill="#000000" font-family="Courier" font-size="11" lengthAdjust="spacingAndGlyphs" textLength="200" x="280.5" y="308.308">INTEGER      ☆ department_id</text><text fill="#000000" font-family="Courier" font-size="11" lengthAdjust="spacingAndGlyphs" textLength="132" x="280.5" y="319.2943">VARCHAR[100] ⚪ name</text><text fill="#000000" font-family="Courier" font-size="11" lengthAdjust="spacingAndGlyphs" textLength="160" x="280.5" y="330.2806">VARCHAR[10]  ⚪ position</text><ellipse cx="271.5" cy="337.9453" fill="none" rx="3" ry="3" style="stroke: #038048; stroke-width: 1.0;"/><text fill="#000000" font-family="Courier" font-size="11" lengthAdjust="spacingAndGlyphs" textLength="70" x="280.5" y="341.2738">department</text><line style="stroke: #A80036; stroke-width: 1.5;" x1="261.5" x2="485.5" y1="345.9316" y2="345.9316"/><!--class Subject--><rect fill="#FEFECE" filter="url(#f1r4c0zmx6685b)" height="124.9043" id="Subject" style="stroke: #A80036; stroke-width: 1.5;" width="219" x="6" y="240"/><ellipse cx="86.75" cy="256" fill="#ADD1B2" rx="11" ry="11" style="stroke: #A80036; stroke-width: 1.0;"/><path d="M89.0938,251.6719 L89.2656,251.75 C89.4844,251.4375 89.6875,251.3438 89.9844,251.3438 C90.2813,251.3438 90.5625,251.4844 90.7188,251.75 C90.8125,251.9063 90.8281,252.0313 90.8281,252.4688 L90.8281,253.8906 C90.8281,254.3125 90.7969,254.5 90.6875,254.6563 C90.5156,254.875 90.25,255.0156 89.9844,255.0156 C89.7656,255.0156 89.5313,254.9063 89.3906,254.7656 C89.25,254.6406 89.2188,254.5156 89.1563,254.1094 C89.0625,253.7031 88.8906,253.4844 88.4063,253.2031 C87.9375,252.9531 87.3281,252.7969 86.75,252.7969 C85.0156,252.7969 83.7656,254.1094 83.7656,255.8906 L83.7656,256.9844 C83.7656,258.6875 85.0625,259.7813 87.1094,259.7813 C87.875,259.7813 88.5625,259.6563 88.9844,259.3906 C89.1719,259.2969 89.1719,259.2969 89.625,258.8125 C89.8125,258.625 90.0156,258.5469 90.2344,258.5469 C90.7031,258.5469 91.0938,258.9375 91.0938,259.3906 C91.0938,259.7813 90.7656,260.2344 90.1875,260.6406 C89.4375,261.1875 88.2813,261.4844 87.0625,261.4844 C84.1719,261.4844 82.0625,259.5938 82.0625,257.0156 L82.0625,255.8906 C82.0625,253.1719 84.0625,251.0938 86.6875,251.0938 C87.5625,251.0938 88.1563,251.2344 89.0938,251.6719 Z "/><text fill="#000000" font-family="Courier" font-size="12" lengthAdjust="spacingAndGlyphs" textLength="49" x="107.25" y="261.2711">Subject</text><line style="stroke: #A80036; stroke-width: 1.5;" x1="7" x2="224" y1="272" y2="272"/><text fill="#000000" font-family="Courier" font-size="11" lengthAdjust="spacingAndGlyphs" textLength="116" x="26" y="286.3217">INTEGER     ★ id</text><text fill="#000000" font-family="Courier" font-size="11" lengthAdjust="spacingAndGlyphs" textLength="193" x="26" y="297.308">INTEGER     ☆ department_id</text><text fill="#000000" font-family="Courier" font-size="11" lengthAdjust="spacingAndGlyphs" textLength="125" x="26" y="308.2943">VARCHAR[50] ⚪ code</text><text fill="#000000" font-family="Courier" font-size="11" lengthAdjust="spacingAndGlyphs" textLength="181" x="26" y="319.2806">INTEGER     ⚪ lecture_time</text><text fill="#000000" font-family="Courier" font-size="11" lengthAdjust="spacingAndGlyphs" textLength="125" x="26" y="330.267">VARCHAR[50] ⚪ name</text><ellipse cx="17" cy="337.9316" fill="none" rx="3" ry="3" style="stroke: #038048; stroke-width: 1.0;"/><text fill="#000000" font-family="Courier" font-size="11" lengthAdjust="spacingAndGlyphs" textLength="70" x="26" y="341.2601">department</text><ellipse cx="17" cy="348.9316" fill="none" rx="3" ry="3" style="stroke: #038048; stroke-width: 1.0;"/><text fill="#000000" font-family="Courier" font-size="11" lengthAdjust="spacingAndGlyphs" textLength="56" x="26" y="352.2601">location</text><line style="stroke: #A80036; stroke-width: 1.5;" x1="7" x2="224" y1="356.9043" y2="356.9043"/><!--class location_subject--><rect fill="#FEFECE" filter="url(#f1r4c0zmx6685b)" height="69.9727" id="location_subject" style="stroke: #A80036; stroke-width: 1.5;" width="163" x="228" y="30"/><ellipse cx="251.55" cy="46" fill="#ADD1B2" rx="11" ry="11" style="stroke: #A80036; stroke-width: 1.0;"/><path d="M253.8938,41.6719 L254.0656,41.75 C254.2844,41.4375 254.4875,41.3438 254.7844,41.3438 C255.0813,41.3438 255.3625,41.4844 255.5188,41.75 C255.6125,41.9063 255.6281,42.0313 255.6281,42.4688 L255.6281,43.8906 C255.6281,44.3125 255.5969,44.5 255.4875,44.6563 C255.3156,44.875 255.05,45.0156 254.7844,45.0156 C254.5656,45.0156 254.3313,44.9063 254.1906,44.7656 C254.05,44.6406 254.0188,44.5156 253.9563,44.1094 C253.8625,43.7031 253.6906,43.4844 253.2063,43.2031 C252.7375,42.9531 252.1281,42.7969 251.55,42.7969 C249.8156,42.7969 248.5656,44.1094 248.5656,45.8906 L248.5656,46.9844 C248.5656,48.6875 249.8625,49.7813 251.9094,49.7813 C252.675,49.7813 253.3625,49.6563 253.7844,49.3906 C253.9719,49.2969 253.9719,49.2969 254.425,48.8125 C254.6125,48.625 254.8156,48.5469 255.0344,48.5469 C255.5031,48.5469 255.8938,48.9375 255.8938,49.3906 C255.8938,49.7813 255.5656,50.2344 254.9875,50.6406 C254.2375,51.1875 253.0813,51.4844 251.8625,51.4844 C248.9719,51.4844 246.8625,49.5938 246.8625,47.0156 L246.8625,45.8906 C246.8625,43.1719 248.8625,41.0938 251.4875,41.0938 C252.3625,41.0938 252.9563,41.2344 253.8938,41.6719 Z "/><text fill="#000000" font-family="Courier" font-size="12" lengthAdjust="spacingAndGlyphs" textLength="112" x="267.45" y="51.2711">location_subject</text><line style="stroke: #A80036; stroke-width: 1.5;" x1="229" x2="390" y1="62" y2="62"/><text fill="#000000" font-family="Courier" font-size="11" lengthAdjust="spacingAndGlyphs" textLength="151" x="234" y="76.3217">INTEGER ☆ location_id</text><text fill="#000000" font-family="Courier" font-size="11" lengthAdjust="spacingAndGlyphs" textLength="144" x="234" y="87.308">INTEGER ☆ subject_id</text><line style="stroke: #A80036; stroke-width: 1.5;" x1="229" x2="390" y1="91.9727" y2="91.9727"/><!--class User--><rect fill="#FEFECE" filter="url(#f1r4c0zmx6685b)" height="113.918" id="User" style="stroke: #A80036; stroke-width: 1.5;" width="179" x="1007" y="8"/><ellipse cx="1078.25" cy="24" fill="#ADD1B2" rx="11" ry="11" style="stroke: #A80036; stroke-width: 1.0;"/><path d="M1080.5938,19.6719 L1080.7656,19.75 C1080.9844,19.4375 1081.1875,19.3438 1081.4844,19.3438 C1081.7813,19.3438 1082.0625,19.4844 1082.2188,19.75 C1082.3125,19.9063 1082.3281,20.0313 1082.3281,20.4688 L1082.3281,21.8906 C1082.3281,22.3125 1082.2969,22.5 1082.1875,22.6563 C1082.0156,22.875 1081.75,23.0156 1081.4844,23.0156 C1081.2656,23.0156 1081.0313,22.9063 1080.8906,22.7656 C1080.75,22.6406 1080.7188,22.5156 1080.6563,22.1094 C1080.5625,21.7031 1080.3906,21.4844 1079.9063,21.2031 C1079.4375,20.9531 1078.8281,20.7969 1078.25,20.7969 C1076.5156,20.7969 1075.2656,22.1094 1075.2656,23.8906 L1075.2656,24.9844 C1075.2656,26.6875 1076.5625,27.7813 1078.6094,27.7813 C1079.375,27.7813 1080.0625,27.6563 1080.4844,27.3906 C1080.6719,27.2969 1080.6719,27.2969 1081.125,26.8125 C1081.3125,26.625 1081.5156,26.5469 1081.7344,26.5469 C1082.2031,26.5469 1082.5938,26.9375 1082.5938,27.3906 C1082.5938,27.7813 1082.2656,28.2344 1081.6875,28.6406 C1080.9375,29.1875 1079.7813,29.4844 1078.5625,29.4844 C1075.6719,29.4844 1073.5625,27.5938 1073.5625,25.0156 L1073.5625,23.8906 C1073.5625,21.1719 1075.5625,19.0938 1078.1875,19.0938 C1079.0625,19.0938 1079.6563,19.2344 1080.5938,19.6719 Z "/><text fill="#000000" font-family="Courier" font-size="12" lengthAdjust="spacingAndGlyphs" textLength="28" x="1098.75" y="29.2711">User</text><line style="stroke: #A80036; stroke-width: 1.5;" x1="1008" x2="1185" y1="40" y2="40"/><text fill="#000000" font-family="Courier" font-size="11" lengthAdjust="spacingAndGlyphs" textLength="123" x="1013" y="54.3217">INTEGER      ★ id</text><text fill="#000000" font-family="Courier" font-size="11" lengthAdjust="spacingAndGlyphs" textLength="158" x="1013" y="65.308">INTEGER      ☆ role_id</text><text fill="#000000" font-family="Courier" font-size="11" lengthAdjust="spacingAndGlyphs" textLength="139" x="1013" y="76.2943">VARCHAR[100] ⚪ email</text><text fill="#000000" font-family="Courier" font-size="11" lengthAdjust="spacingAndGlyphs" textLength="167" x="1013" y="87.2806">VARCHAR[150] ⚪ full_name</text><text fill="#000000" font-family="Courier" font-size="11" lengthAdjust="spacingAndGlyphs" textLength="132" x="1013" y="98.267">VARCHAR[50]  ⚪ name</text><text fill="#000000" font-family="Courier" font-size="11" lengthAdjust="spacingAndGlyphs" textLength="160" x="1013" y="109.2533">VARCHAR[30]  ⚪ password</text><line style="stroke: #A80036; stroke-width: 1.5;" x1="1008" x2="1185" y1="113.918" y2="113.918"/><!--class Role--><rect fill="#FEFECE" filter="url(#f1r4c0zmx6685b)" height="91.9453" id="Role" style="stroke: #A80036; stroke-width: 1.5;" width="207" x="992" y="256.5"/><ellipse cx="1077.25" cy="272.5" fill="#ADD1B2" rx="11" ry="11" style="stroke: #A80036; stroke-width: 1.0;"/><path d="M1079.5938,268.1719 L1079.7656,268.25 C1079.9844,267.9375 1080.1875,267.8438 1080.4844,267.8438 C1080.7813,267.8438 1081.0625,267.9844 1081.2188,268.25 C1081.3125,268.4063 1081.3281,268.5313 1081.3281,268.9688 L1081.3281,270.3906 C1081.3281,270.8125 1081.2969,271 1081.1875,271.1563 C1081.0156,271.375 1080.75,271.5156 1080.4844,271.5156 C1080.2656,271.5156 1080.0313,271.4063 1079.8906,271.2656 C1079.75,271.1406 1079.7188,271.0156 1079.6563,270.6094 C1079.5625,270.2031 1079.3906,269.9844 1078.9063,269.7031 C1078.4375,269.4531 1077.8281,269.2969 1077.25,269.2969 C1075.5156,269.2969 1074.2656,270.6094 1074.2656,272.3906 L1074.2656,273.4844 C1074.2656,275.1875 1075.5625,276.2813 1077.6094,276.2813 C1078.375,276.2813 1079.0625,276.1563 1079.4844,275.8906 C1079.6719,275.7969 1079.6719,275.7969 1080.125,275.3125 C1080.3125,275.125 1080.5156,275.0469 1080.7344,275.0469 C1081.2031,275.0469 1081.5938,275.4375 1081.5938,275.8906 C1081.5938,276.2813 1081.2656,276.7344 1080.6875,277.1406 C1079.9375,277.6875 1078.7813,277.9844 1077.5625,277.9844 C1074.6719,277.9844 1072.5625,276.0938 1072.5625,273.5156 L1072.5625,272.3906 C1072.5625,269.6719 1074.5625,267.5938 1077.1875,267.5938 C1078.0625,267.5938 1078.6563,267.7344 1079.5938,268.1719 Z "/><text fill="#000000" font-family="Courier" font-size="12" lengthAdjust="spacingAndGlyphs" textLength="28" x="1097.75" y="277.7711">Role</text><line style="stroke: #A80036; stroke-width: 1.5;" x1="993" x2="1198" y1="288.5" y2="288.5"/><text fill="#000000" font-family="Courier" font-size="11" lengthAdjust="spacingAndGlyphs" textLength="123" x="1012" y="302.8217">INTEGER      ★ id</text><text fill="#000000" font-family="Courier" font-size="11" lengthAdjust="spacingAndGlyphs" textLength="181" x="1012" y="313.808">VARCHAR[200] ⚪ Description</text><text fill="#000000" font-family="Courier" font-size="11" lengthAdjust="spacingAndGlyphs" textLength="132" x="1012" y="324.7943">VARCHAR[50]  ⚪ name</text><ellipse cx="1003" cy="332.459" fill="none" rx="3" ry="3" style="stroke: #038048; stroke-width: 1.0;"/><text fill="#000000" font-family="Courier" font-size="11" lengthAdjust="spacingAndGlyphs" textLength="63" x="1012" y="335.7875">locations</text><line style="stroke: #A80036; stroke-width: 1.5;" x1="993" x2="1198" y1="340.4453" y2="340.4453"/><!--class role_locations--><rect fill="#FEFECE" filter="url(#f1r4c0zmx6685b)" height="69.9727" id="role_locations" style="stroke: #A80036; stroke-width: 1.5;" width="163" x="798" y="30"/><ellipse cx="827.85" cy="46" fill="#ADD1B2" rx="11" ry="11" style="stroke: #A80036; stroke-width: 1.0;"/><path d="M830.1938,41.6719 L830.3656,41.75 C830.5844,41.4375 830.7875,41.3438 831.0844,41.3438 C831.3813,41.3438 831.6625,41.4844 831.8188,41.75 C831.9125,41.9063 831.9281,42.0313 831.9281,42.4688 L831.9281,43.8906 C831.9281,44.3125 831.8969,44.5 831.7875,44.6563 C831.6156,44.875 831.35,45.0156 831.0844,45.0156 C830.8656,45.0156 830.6313,44.9063 830.4906,44.7656 C830.35,44.6406 830.3188,44.5156 830.2563,44.1094 C830.1625,43.7031 829.9906,43.4844 829.5063,43.2031 C829.0375,42.9531 828.4281,42.7969 827.85,42.7969 C826.1156,42.7969 824.8656,44.1094 824.8656,45.8906 L824.8656,46.9844 C824.8656,48.6875 826.1625,49.7813 828.2094,49.7813 C828.975,49.7813 829.6625,49.6563 830.0844,49.3906 C830.2719,49.2969 830.2719,49.2969 830.725,48.8125 C830.9125,48.625 831.1156,48.5469 831.3344,48.5469 C831.8031,48.5469 832.1938,48.9375 832.1938,49.3906 C832.1938,49.7813 831.8656,50.2344 831.2875,50.6406 C830.5375,51.1875 829.3813,51.4844 828.1625,51.4844 C825.2719,51.4844 823.1625,49.5938 823.1625,47.0156 L823.1625,45.8906 C823.1625,43.1719 825.1625,41.0938 827.7875,41.0938 C828.6625,41.0938 829.2563,41.2344 830.1938,41.6719 Z "/><text fill="#000000" font-family="Courier" font-size="12" lengthAdjust="spacingAndGlyphs" textLength="98" x="845.15" y="51.2711">role_locations</text><line style="stroke: #A80036; stroke-width: 1.5;" x1="799" x2="960" y1="62" y2="62"/><text fill="#000000" font-family="Courier" font-size="11" lengthAdjust="spacingAndGlyphs" textLength="151" x="804" y="76.3217">INTEGER ☆ location_id</text><text fill="#000000" font-family="Courier" font-size="11" lengthAdjust="spacingAndGlyphs" textLength="123" x="804" y="87.308">INTEGER ☆ role_id</text><line style="stroke: #A80036; stroke-width: 1.5;" x1="799" x2="960" y1="91.9727" y2="91.9727"/><!--link Floor to Building--><path d="M624.846,607.841 C612.009,625.123 598.324,643.544 585.955,660.195 " fill="none" id="Floor-Building" style="stroke: #A80036; stroke-width: 1.0;"/><polygon fill="#FFFFFF" points="578.039,670.8514,584.828,668.4205,585.1953,661.2187,578.4062,663.6497,578.039,670.8514" style="stroke: #A80036; stroke-width: 1.0;"/><polygon fill="#A80036" points="632.652,597.334,624.0744,602.1738,629.6706,601.3479,630.4965,606.9441,632.652,597.334" style="stroke: #A80036; stroke-width: 1.0;"/><line style="stroke: #A80036; stroke-width: 1.0;" x1="629.6706" x2="624.8995" y1="601.3479" y2="607.77"/><text fill="#000000" font-family="Courier" font-size="13" lengthAdjust="spacingAndGlyphs" textLength="88" x="610.5" y="640.1996">building_id</text><!--link Location to Floor--><path d="M755.884,419.956 C743.687,437.797 731.463,455.678 720.332,471.96 " fill="none" id="Location-Floor" style="stroke: #A80036; stroke-width: 1.0;"/><polygon fill="#FFFFFF" points="712.814,482.956,719.5024,480.2606,719.5868,473.05,712.8984,475.7454,712.814,482.956" style="stroke: #A80036; stroke-width: 1.0;"/><polygon fill="#A80036" points="763.242,409.195,754.8604,414.3669,760.42,413.3225,761.4644,418.8821,763.242,409.195" style="stroke: #A80036; stroke-width: 1.0;"/><line style="stroke: #A80036; stroke-width: 1.0;" x1="760.42" x2="755.905" y1="413.3225" y2="419.927"/><text fill="#000000" font-family="Courier" font-size="13" lengthAdjust="spacingAndGlyphs" textLength="64" x="742.5" y="452.1996">floor_id</text><!--link component_location to Component--><path d="M610.21,112.247 C604.974,124.829 600.177,138.67 597.5,152 C591.145,183.64 591.669,219.804 593.89,248.637 " fill="none" id="component_location-Component" style="stroke: #A80036; stroke-width: 1.0;"/><polygon fill="#FFFFFF" points="595.053,261.738,598.5073,255.4081,593.9928,249.7849,590.5386,256.1148,595.053,261.738" style="stroke: #A80036; stroke-width: 1.0;"/><polygon fill="#A80036" points="615.531,100.15,608.2452,106.777,613.5174,104.7266,615.5678,109.9988,615.531,100.15" style="stroke: #A80036; stroke-width: 1.0;"/><line style="stroke: #A80036; stroke-width: 1.0;" x1="613.5174" x2="610.297" y1="104.7266" y2="112.0495"/><text fill="#000000" font-family="Courier" font-size="13" lengthAdjust="spacingAndGlyphs" textLength="96" x="598.5" y="165.1996">component_id</text><!--link component_location to Location--><path d="M671.402,110.187 C689.926,131.784 713.174,158.888 736.297,185.845 " fill="none" id="component_location-Location" style="stroke: #A80036; stroke-width: 1.0;"/><polygon fill="#FFFFFF" points="744.801,195.76,743.9311,188.6016,736.9887,186.6513,737.8586,193.8098,744.801,195.76" style="stroke: #A80036; stroke-width: 1.0;"/><polygon fill="#A80036" points="662.873,100.244,665.696,109.6796,666.1281,104.0393,671.7685,104.4714,662.873,100.244" style="stroke: #A80036; stroke-width: 1.0;"/><line style="stroke: #A80036; stroke-width: 1.0;" x1="666.1281" x2="671.3365" y1="104.0393" y2="110.111"/><text fill="#000000" font-family="Courier" font-size="13" lengthAdjust="spacingAndGlyphs" textLength="88" x="717.5" y="165.1996">location_id</text><!--link Department to Building--><path d="M432.339,601.216 C451.43,620.753 472.491,642.307 491.158,661.411 " fill="none" id="Department-Building" style="stroke: #A80036; stroke-width: 1.0;"/><polygon fill="#FFFFFF" points="500.394,670.8621,499.0618,663.7751,492.0076,662.2791,493.3398,669.3661,500.394,670.8621" style="stroke: #A80036; stroke-width: 1.0;"/><polygon fill="#A80036" points="422.96,591.617,426.3896,600.8494,426.4546,595.193,432.1111,595.258,422.96,591.617" style="stroke: #A80036; stroke-width: 1.0;"/><line style="stroke: #A80036; stroke-width: 1.0;" x1="426.4546" x2="432.046" y1="595.193" y2="600.915"/><text fill="#000000" font-family="Courier" font-size="13" lengthAdjust="spacingAndGlyphs" textLength="88" x="470.5" y="640.1996">building_id</text><!--link Staff to Department--><path d="M373.5,367.024 C373.5,400.421 373.5,441.264 373.5,474.766 " fill="none" id="Staff-Department" style="stroke: #A80036; stroke-width: 1.0;"/><polygon fill="#FFFFFF" points="373.5,488.157,377.5,482.157,373.5,476.157,369.5,482.157,373.5,488.157" style="stroke: #A80036; stroke-width: 1.0;"/><polygon fill="#A80036" points="373.5,354.021,369.5,363.021,373.5,359.021,377.5,363.021,373.5,354.021" style="stroke: #A80036; stroke-width: 1.0;"/><line style="stroke: #A80036; stroke-width: 1.0;" x1="373.5" x2="373.5" y1="359.021" y2="367.021"/><text fill="#000000" font-family="Courier" font-size="13" lengthAdjust="spacingAndGlyphs" textLength="104" x="374.5" y="452.1996">department_id</text><!--link Subject to Department--><path d="M179.926,374.934 C204.054,400.447 232.239,428.837 259.5,453 C269.869,462.191 281.145,471.468 292.436,480.355 " fill="none" id="Subject-Department" style="stroke: #A80036; stroke-width: 1.0;"/><polygon fill="#FFFFFF" points="302.785,488.394,300.501,481.5542,293.3089,481.0317,295.5928,487.8716,302.785,488.394" style="stroke: #A80036; stroke-width: 1.0;"/><polygon fill="#A80036" points="170.888,365.312,174.1347,374.6103,174.3114,368.9562,179.9655,369.1329,170.888,365.312" style="stroke: #A80036; stroke-width: 1.0;"/><line style="stroke: #A80036; stroke-width: 1.0;" x1="174.3114" x2="179.7885" y1="368.9562" y2="374.7875"/><text fill="#000000" font-family="Courier" font-size="13" lengthAdjust="spacingAndGlyphs" textLength="104" x="260.5" y="452.1996">department_id</text><!--link location_subject to Subject--><path d="M272.618,110.645 C261.635,123.947 249.577,138.56 238.5,152 C217.738,177.191 195.026,204.787 174.831,229.336 " fill="none" id="location_subject-Subject" style="stroke: #A80036; stroke-width: 1.0;"/><polygon fill="#FFFFFF" points="166.343,239.655,173.2438,237.5623,173.9662,230.3875,167.0654,232.4802,166.343,239.655" style="stroke: #A80036; stroke-width: 1.0;"/><polygon fill="#A80036" points="281.156,100.305,272.3412,104.6981,277.9725,104.1605,278.51,109.7918,281.156,100.305" style="stroke: #A80036; stroke-width: 1.0;"/><line style="stroke: #A80036; stroke-width: 1.0;" x1="277.9725" x2="272.8785" y1="104.1605" y2="110.329"/><text fill="#000000" font-family="Courier" font-size="13" lengthAdjust="spacingAndGlyphs" textLength="80" x="239.5" y="165.1996">subject_id</text><!--link location_subject to Location--><path d="M373.586,107.102 C408.847,127.881 454.138,151.667 497.5,166 C582.425,194.071 614.097,161.216 696.5,196 C698.563,196.871 700.622,197.779 702.677,198.722 " fill="none" id="location_subject-Location" style="stroke: #A80036; stroke-width: 1.0;"/><polygon fill="#FFFFFF" points="714.382,204.484,710.7653,198.2455,703.6156,199.1845,707.2323,205.4231,714.382,204.484" style="stroke: #A80036; stroke-width: 1.0;"/><polygon fill="#A80036" points="362.03,100.189,367.6996,108.2423,366.3207,102.7561,371.8069,101.3771,362.03,100.189" style="stroke: #A80036; stroke-width: 1.0;"/><line style="stroke: #A80036; stroke-width: 1.0;" x1="366.3207" x2="373.186" y1="102.7561" y2="106.8625"/><text fill="#000000" font-family="Courier" font-size="13" lengthAdjust="spacingAndGlyphs" textLength="88" x="498.5" y="165.1996">location_id</text><!--link User to Role--><path d="M1096.21,135.282 C1096.06,169.67 1095.89,210.739 1095.75,243.45 " fill="none" id="User-Role" style="stroke: #A80036; stroke-width: 1.0;"/><polygon fill="#FFFFFF" points="1095.69,256.456,1099.7157,250.4732,1095.7414,244.4561,1091.7158,250.4389,1095.69,256.456" style="stroke: #A80036; stroke-width: 1.0;"/><polygon fill="#A80036" points="1096.26,122.109,1092.2215,131.0918,1096.2386,127.109,1100.2214,131.1261,1096.26,122.109" style="stroke: #A80036; stroke-width: 1.0;"/><line style="stroke: #A80036; stroke-width: 1.0;" x1="1096.2386" x2="1096.21" y1="127.109" y2="135.1085"/><text fill="#000000" font-family="Courier" font-size="13" lengthAdjust="spacingAndGlyphs" textLength="56" x="1097.5" y="165.1996">role_id</text><!--link role_locations to Role--><path d="M920.402,109.78 C932.975,123.289 946.835,138.233 959.5,152 C988.187,183.184 1020.07,218.215 1045.76,246.525 " fill="none" id="role_locations-Role" style="stroke: #A80036; stroke-width: 1.0;"/><polygon fill="#FFFFFF" points="1054.57,256.24,1053.5026,249.1083,1046.509,247.3507,1047.5764,254.4824,1054.57,256.24" style="stroke: #A80036; stroke-width: 1.0;"/><polygon fill="#A80036" points="911.509,100.235,914.7159,109.5471,914.9168,103.8939,920.57,104.0947,911.509,100.235" style="stroke: #A80036; stroke-width: 1.0;"/><line style="stroke: #A80036; stroke-width: 1.0;" x1="914.9168" x2="920.3705" y1="103.8939" y2="109.747"/><text fill="#000000" font-family="Courier" font-size="13" lengthAdjust="spacingAndGlyphs" textLength="56" x="972.5" y="165.1996">role_id</text><!--link role_locations to Location--><path d="M870.692,113.143 C866.906,133.408 862.293,158.097 857.67,182.839 " fill="none" id="role_locations-Location" style="stroke: #A80036; stroke-width: 1.0;"/><polygon fill="#FFFFFF" points="855.256,195.76,860.2898,190.5966,857.4596,183.9641,852.4258,189.1275,855.256,195.76" style="stroke: #A80036; stroke-width: 1.0;"/><polygon fill="#A80036" points="873.102,100.244,867.5173,108.3564,872.1838,105.159,875.3813,109.8255,873.102,100.244" style="stroke: #A80036; stroke-width: 1.0;"/><line style="stroke: #A80036; stroke-width: 1.0;" x1="872.1838" x2="870.7145" y1="105.159" y2="113.0225"/><text fill="#000000" font-family="Courier" font-size="13" lengthAdjust="spacingAndGlyphs" textLength="88" x="864.5" y="165.1996">location_id</text><!--
@startuml
skinparam defaultFontName Courier

Class Building {
    INTEGER      ★ id          
    BOOLEAN      ⚪ availability
    VARCHAR[40]  ⚪ code        
    VARCHAR[150] ⚪ description 
}

Class Floor {
    INTEGER      ★ id          
    INTEGER      ☆ building_id 
    BOOLEAN      ⚪ availability
    VARCHAR[250] ⚪ code        
    VARCHAR[150] ⚪ description 
    +            building      
}

Class Location {
    INTEGER      ★ id              
    INTEGER      ☆ floor_id        
    BOOLEAN      ⚪ aircondition    
    BOOLEAN      ⚪ availability    
    BOOLEAN      ⚪ board           
    VARCHAR[250] ⚪ code            
    INTEGER      ⚪ color           
    BOOLEAN      ⚪ datashow        
    VARCHAR[150] ⚪ description     
    INTEGER      ⚪ exam_capacity   
    INTEGER      ⚪ regular_capacity
    +            compnents         
    +            floor             
    +            roles             
    +            subjects          
}

Class Component {
    INTEGER      ★ id     
    VARCHAR[150] ⚪ name   
    +            locations
}

Class component_location {
    INTEGER ☆ component_id
    INTEGER ☆ location_id 
}

Class Department {
    INTEGER      ★ id         
    INTEGER      ☆ building_id
    VARCHAR[250] ⚪ code       
    VARCHAR[150] ⚪ name       
    +            building     
}

Class Staff {
    INTEGER      ★ id           
    INTEGER      ☆ department_id
    VARCHAR[100] ⚪ name         
    VARCHAR[10]  ⚪ position     
    +            department     
}

Class Subject {
    INTEGER     ★ id           
    INTEGER     ☆ department_id
    VARCHAR[50] ⚪ code         
    INTEGER     ⚪ lecture_time 
    VARCHAR[50] ⚪ name         
    +           department     
    +           location       
}

Class location_subject {
    INTEGER ☆ location_id
    INTEGER ☆ subject_id 
}

Class User {
    INTEGER      ★ id       
    INTEGER      ☆ role_id  
    VARCHAR[100] ⚪ email    
    VARCHAR[150] ⚪ full_name
    VARCHAR[50]  ⚪ name     
    VARCHAR[30]  ⚪ password 
}

Class Role {
    INTEGER      ★ id         
    VARCHAR[200] ⚪ Description
    VARCHAR[50]  ⚪ name       
    +            locations    
}

Class role_locations {
    INTEGER ☆ location_id
    INTEGER ☆ role_id    
}

Floor <- -o Building: building_id

Location <- -o Floor: floor_id

component_location <- -o Component: component_id

component_location <- -o Location: location_id

Department <- -o Building: building_id

Staff <- -o Department: department_id

Subject <- -o Department: department_id

location_subject <- -o Subject: subject_id

location_subject <- -o Location: location_id

User <- -o Role: role_id

role_locations <- -o Role: role_id

role_locations <- -o Location: location_id
@enduml

PlantUML version 1.2019.03(Sun Mar 10 11:04:44 UTC 2019)
(GPL source distribution)
Java Runtime: Java(TM) SE Runtime Environment
JVM: Java HotSpot(TM) 64-Bit Server VM
Java Version: 1.7.0_25-b15
Operating System: Linux
Default Encoding: UTF-8
Language: en
Country: US
--></g></svg>