<?xml version="1.0" encoding="UTF-8" standalone="no"?><svg xmlns="http://www.w3.org/2000/svg" xmlns:xlink="http://www.w3.org/1999/xlink" contentScriptType="application/ecmascript" contentStyleType="text/css" height="773px" preserveAspectRatio="none" style="width:1442px;height:773px;" version="1.1" viewBox="0 0 1442 773" width="1442px" zoomAndPan="magnify"><defs><filter height="300%" id="ffwsczd53sa2y" width="300%" x="-1" y="-1"><feGaussianBlur result="blurOut" stdDeviation="2.0"/><feColorMatrix in="blurOut" result="blurOut2" type="matrix" values="0 0 0 0 0 0 0 0 0 0 0 0 0 0 0 0 0 0 .4 0"/><feOffset dx="4.0" dy="4.0" in="blurOut2" result="blurOut3"/><feBlend in="SourceGraphic" in2="blurOut3" mode="normal"/></filter></defs><g><!--class Building--><rect fill="#FEFECE" filter="url(#ffwsczd53sa2y)" height="102.9316" id="Building" style="stroke: #A80036; stroke-width: 1.5;" width="214" x="351" y="638"/><ellipse cx="425.75" cy="654" fill="#ADD1B2" rx="11" ry="11" style="stroke: #A80036; stroke-width: 1.0;"/><path d="M428.0938,649.6719 L428.2656,649.75 C428.4844,649.4375 428.6875,649.3438 428.9844,649.3438 C429.2813,649.3438 429.5625,649.4844 429.7188,649.75 C429.8125,649.9063 429.8281,650.0313 429.8281,650.4688 L429.8281,651.8906 C429.8281,652.3125 429.7969,652.5 429.6875,652.6563 C429.5156,652.875 429.25,653.0156 428.9844,653.0156 C428.7656,653.0156 428.5313,652.9063 428.3906,652.7656 C428.25,652.6406 428.2188,652.5156 428.1563,652.1094 C428.0625,651.7031 427.8906,651.4844 427.4063,651.2031 C426.9375,650.9531 426.3281,650.7969 425.75,650.7969 C424.0156,650.7969 422.7656,652.1094 422.7656,653.8906 L422.7656,654.9844 C422.7656,656.6875 424.0625,657.7813 426.1094,657.7813 C426.875,657.7813 427.5625,657.6563 427.9844,657.3906 C428.1719,657.2969 428.1719,657.2969 428.625,656.8125 C428.8125,656.625 429.0156,656.5469 429.2344,656.5469 C429.7031,656.5469 430.0938,656.9375 430.0938,657.3906 C430.0938,657.7813 429.7656,658.2344 429.1875,658.6406 C428.4375,659.1875 427.2813,659.4844 426.0625,659.4844 C423.1719,659.4844 421.0625,657.5938 421.0625,655.0156 L421.0625,653.8906 C421.0625,651.1719 423.0625,649.0938 425.6875,649.0938 C426.5625,649.0938 427.1563,649.2344 428.0938,649.6719 Z "/><text fill="#000000" font-family="Courier" font-size="12" lengthAdjust="spacingAndGlyphs" textLength="56" x="446.25" y="659.2711">Building</text><line style="stroke: #A80036; stroke-width: 1.5;" x1="352" x2="564" y1="670" y2="670"/><text fill="#000000" font-family="Courier" font-size="11" lengthAdjust="spacingAndGlyphs" textLength="123" x="371" y="684.3217">INTEGER      ★ id</text><text fill="#000000" font-family="Courier" font-size="11" lengthAdjust="spacingAndGlyphs" textLength="188" x="371" y="695.308">BOOLEAN      ⚪ availability</text><text fill="#000000" font-family="Courier" font-size="11" lengthAdjust="spacingAndGlyphs" textLength="132" x="371" y="706.2943">VARCHAR[40]  ⚪ code</text><text fill="#000000" font-family="Courier" font-size="11" lengthAdjust="spacingAndGlyphs" textLength="181" x="371" y="717.2806">VARCHAR[150] ⚪ description</text><ellipse cx="362" cy="724.9453" fill="none" rx="3" ry="3" style="stroke: #038048; stroke-width: 1.0;"/><text fill="#000000" font-family="Courier" font-size="11" lengthAdjust="spacingAndGlyphs" textLength="77" x="371" y="728.2738">departments</text><line style="stroke: #A80036; stroke-width: 1.5;" x1="352" x2="564" y1="732.9316" y2="732.9316"/><!--class Floor--><rect fill="#FEFECE" filter="url(#ffwsczd53sa2y)" height="113.918" id="Floor" style="stroke: #A80036; stroke-width: 1.5;" width="214" x="240" y="450"/><ellipse cx="325.25" cy="466" fill="#ADD1B2" rx="11" ry="11" style="stroke: #A80036; stroke-width: 1.0;"/><path d="M327.5938,461.6719 L327.7656,461.75 C327.9844,461.4375 328.1875,461.3438 328.4844,461.3438 C328.7813,461.3438 329.0625,461.4844 329.2188,461.75 C329.3125,461.9063 329.3281,462.0313 329.3281,462.4688 L329.3281,463.8906 C329.3281,464.3125 329.2969,464.5 329.1875,464.6563 C329.0156,464.875 328.75,465.0156 328.4844,465.0156 C328.2656,465.0156 328.0313,464.9063 327.8906,464.7656 C327.75,464.6406 327.7188,464.5156 327.6563,464.1094 C327.5625,463.7031 327.3906,463.4844 326.9063,463.2031 C326.4375,462.9531 325.8281,462.7969 325.25,462.7969 C323.5156,462.7969 322.2656,464.1094 322.2656,465.8906 L322.2656,466.9844 C322.2656,468.6875 323.5625,469.7813 325.6094,469.7813 C326.375,469.7813 327.0625,469.6563 327.4844,469.3906 C327.6719,469.2969 327.6719,469.2969 328.125,468.8125 C328.3125,468.625 328.5156,468.5469 328.7344,468.5469 C329.2031,468.5469 329.5938,468.9375 329.5938,469.3906 C329.5938,469.7813 329.2656,470.2344 328.6875,470.6406 C327.9375,471.1875 326.7813,471.4844 325.5625,471.4844 C322.6719,471.4844 320.5625,469.5938 320.5625,467.0156 L320.5625,465.8906 C320.5625,463.1719 322.5625,461.0938 325.1875,461.0938 C326.0625,461.0938 326.6563,461.2344 327.5938,461.6719 Z "/><text fill="#000000" font-family="Courier" font-size="12" lengthAdjust="spacingAndGlyphs" textLength="35" x="345.75" y="471.2711">Floor</text><line style="stroke: #A80036; stroke-width: 1.5;" x1="241" x2="453" y1="482" y2="482"/><text fill="#000000" font-family="Courier" font-size="11" lengthAdjust="spacingAndGlyphs" textLength="123" x="260" y="496.3217">INTEGER      ★ id</text><text fill="#000000" font-family="Courier" font-size="11" lengthAdjust="spacingAndGlyphs" textLength="186" x="260" y="507.308">INTEGER      ☆ building_id</text><text fill="#000000" font-family="Courier" font-size="11" lengthAdjust="spacingAndGlyphs" textLength="188" x="260" y="518.2943">BOOLEAN      ⚪ availability</text><text fill="#000000" font-family="Courier" font-size="11" lengthAdjust="spacingAndGlyphs" textLength="132" x="260" y="529.2806">VARCHAR[250] ⚪ code</text><text fill="#000000" font-family="Courier" font-size="11" lengthAdjust="spacingAndGlyphs" textLength="181" x="260" y="540.267">VARCHAR[150] ⚪ description</text><ellipse cx="251" cy="547.9316" fill="none" rx="3" ry="3" style="stroke: #038048; stroke-width: 1.0;"/><text fill="#000000" font-family="Courier" font-size="11" lengthAdjust="spacingAndGlyphs" textLength="56" x="260" y="551.2601">building</text><line style="stroke: #A80036; stroke-width: 1.5;" x1="241" x2="453" y1="555.918" y2="555.918"/><!--class Location--><rect fill="#FEFECE" filter="url(#ffwsczd53sa2y)" height="179.8359" id="Location" style="stroke: #A80036; stroke-width: 1.5;" width="242" x="199" y="196"/><ellipse cx="287.75" cy="212" fill="#ADD1B2" rx="11" ry="11" style="stroke: #A80036; stroke-width: 1.0;"/><path d="M290.0938,207.6719 L290.2656,207.75 C290.4844,207.4375 290.6875,207.3438 290.9844,207.3438 C291.2813,207.3438 291.5625,207.4844 291.7188,207.75 C291.8125,207.9063 291.8281,208.0313 291.8281,208.4688 L291.8281,209.8906 C291.8281,210.3125 291.7969,210.5 291.6875,210.6563 C291.5156,210.875 291.25,211.0156 290.9844,211.0156 C290.7656,211.0156 290.5313,210.9063 290.3906,210.7656 C290.25,210.6406 290.2188,210.5156 290.1563,210.1094 C290.0625,209.7031 289.8906,209.4844 289.4063,209.2031 C288.9375,208.9531 288.3281,208.7969 287.75,208.7969 C286.0156,208.7969 284.7656,210.1094 284.7656,211.8906 L284.7656,212.9844 C284.7656,214.6875 286.0625,215.7813 288.1094,215.7813 C288.875,215.7813 289.5625,215.6563 289.9844,215.3906 C290.1719,215.2969 290.1719,215.2969 290.625,214.8125 C290.8125,214.625 291.0156,214.5469 291.2344,214.5469 C291.7031,214.5469 292.0938,214.9375 292.0938,215.3906 C292.0938,215.7813 291.7656,216.2344 291.1875,216.6406 C290.4375,217.1875 289.2813,217.4844 288.0625,217.4844 C285.1719,217.4844 283.0625,215.5938 283.0625,213.0156 L283.0625,211.8906 C283.0625,209.1719 285.0625,207.0938 287.6875,207.0938 C288.5625,207.0938 289.1563,207.2344 290.0938,207.6719 Z "/><text fill="#000000" font-family="Courier" font-size="12" lengthAdjust="spacingAndGlyphs" textLength="56" x="308.25" y="217.2711">Location</text><line style="stroke: #A80036; stroke-width: 1.5;" x1="200" x2="440" y1="228" y2="228"/><text fill="#000000" font-family="Courier" font-size="11" lengthAdjust="spacingAndGlyphs" textLength="123" x="219" y="242.3217">INTEGER      ★ id</text><text fill="#000000" font-family="Courier" font-size="11" lengthAdjust="spacingAndGlyphs" textLength="165" x="219" y="253.308">INTEGER      ☆ floor_id</text><text fill="#000000" font-family="Courier" font-size="11" lengthAdjust="spacingAndGlyphs" textLength="188" x="219" y="264.2943">BOOLEAN      ⚪ availability</text><text fill="#000000" font-family="Courier" font-size="11" lengthAdjust="spacingAndGlyphs" textLength="132" x="219" y="275.2806">VARCHAR[250] ⚪ code</text><text fill="#000000" font-family="Courier" font-size="11" lengthAdjust="spacingAndGlyphs" textLength="139" x="219" y="286.267">INTEGER      ⚪ color</text><text fill="#000000" font-family="Courier" font-size="11" lengthAdjust="spacingAndGlyphs" textLength="181" x="219" y="297.2533">VARCHAR[150] ⚪ description</text><text fill="#000000" font-family="Courier" font-size="11" lengthAdjust="spacingAndGlyphs" textLength="195" x="219" y="308.2396">INTEGER      ⚪ exam_capacity</text><text fill="#000000" font-family="Courier" font-size="11" lengthAdjust="spacingAndGlyphs" textLength="216" x="219" y="319.226">INTEGER      ⚪ regular_capacity</text><ellipse cx="210" cy="326.8906" fill="none" rx="3" ry="3" style="stroke: #038048; stroke-width: 1.0;"/><text fill="#000000" font-family="Courier" font-size="11" lengthAdjust="spacingAndGlyphs" textLength="63" x="219" y="330.2191">compnents</text><ellipse cx="210" cy="337.8906" fill="none" rx="3" ry="3" style="stroke: #038048; stroke-width: 1.0;"/><text fill="#000000" font-family="Courier" font-size="11" lengthAdjust="spacingAndGlyphs" textLength="35" x="219" y="341.2191">floor</text><ellipse cx="210" cy="348.8906" fill="none" rx="3" ry="3" style="stroke: #038048; stroke-width: 1.0;"/><text fill="#000000" font-family="Courier" font-size="11" lengthAdjust="spacingAndGlyphs" textLength="35" x="219" y="352.2191">roles</text><ellipse cx="210" cy="359.8906" fill="none" rx="3" ry="3" style="stroke: #038048; stroke-width: 1.0;"/><text fill="#000000" font-family="Courier" font-size="11" lengthAdjust="spacingAndGlyphs" textLength="56" x="219" y="363.2191">subjects</text><line style="stroke: #A80036; stroke-width: 1.5;" x1="200" x2="440" y1="367.8359" y2="367.8359"/><!--class Component--><rect fill="#FEFECE" filter="url(#ffwsczd53sa2y)" height="80.959" id="Component" style="stroke: #A80036; stroke-width: 1.5;" width="158" x="6" y="245.5"/><ellipse cx="49.35" cy="261.5" fill="#ADD1B2" rx="11" ry="11" style="stroke: #A80036; stroke-width: 1.0;"/><path d="M51.6938,257.1719 L51.8656,257.25 C52.0844,256.9375 52.2875,256.8438 52.5844,256.8438 C52.8813,256.8438 53.1625,256.9844 53.3188,257.25 C53.4125,257.4063 53.4281,257.5313 53.4281,257.9688 L53.4281,259.3906 C53.4281,259.8125 53.3969,260 53.2875,260.1563 C53.1156,260.375 52.85,260.5156 52.5844,260.5156 C52.3656,260.5156 52.1313,260.4063 51.9906,260.2656 C51.85,260.1406 51.8188,260.0156 51.7563,259.6094 C51.6625,259.2031 51.4906,258.9844 51.0063,258.7031 C50.5375,258.4531 49.9281,258.2969 49.35,258.2969 C47.6156,258.2969 46.3656,259.6094 46.3656,261.3906 L46.3656,262.4844 C46.3656,264.1875 47.6625,265.2813 49.7094,265.2813 C50.475,265.2813 51.1625,265.1563 51.5844,264.8906 C51.7719,264.7969 51.7719,264.7969 52.225,264.3125 C52.4125,264.125 52.6156,264.0469 52.8344,264.0469 C53.3031,264.0469 53.6938,264.4375 53.6938,264.8906 C53.6938,265.2813 53.3656,265.7344 52.7875,266.1406 C52.0375,266.6875 50.8813,266.9844 49.6625,266.9844 C46.7719,266.9844 44.6625,265.0938 44.6625,262.5156 L44.6625,261.3906 C44.6625,258.6719 46.6625,256.5938 49.2875,256.5938 C50.1625,256.5938 50.7563,256.7344 51.6938,257.1719 Z "/><text fill="#000000" font-family="Courier" font-size="12" lengthAdjust="spacingAndGlyphs" textLength="63" x="69.65" y="266.7711">Component</text><line style="stroke: #A80036; stroke-width: 1.5;" x1="7" x2="163" y1="277.5" y2="277.5"/><text fill="#000000" font-family="Courier" font-size="11" lengthAdjust="spacingAndGlyphs" textLength="123" x="26" y="291.8217">INTEGER      ★ id</text><text fill="#000000" font-family="Courier" font-size="11" lengthAdjust="spacingAndGlyphs" textLength="132" x="26" y="302.808">VARCHAR[150] ⚪ name</text><ellipse cx="17" cy="310.4727" fill="none" rx="3" ry="3" style="stroke: #038048; stroke-width: 1.0;"/><text fill="#000000" font-family="Courier" font-size="11" lengthAdjust="spacingAndGlyphs" textLength="63" x="26" y="313.8011">locations</text><line style="stroke: #A80036; stroke-width: 1.5;" x1="7" x2="163" y1="318.459" y2="318.459"/><!--class component_location--><rect fill="#FEFECE" filter="url(#ffwsczd53sa2y)" height="69.9727" id="component_location" style="stroke: #A80036; stroke-width: 1.5;" width="170" x="117" y="30"/><ellipse cx="137.4" cy="46" fill="#ADD1B2" rx="11" ry="11" style="stroke: #A80036; stroke-width: 1.0;"/><path d="M139.7438,41.6719 L139.9156,41.75 C140.1344,41.4375 140.3375,41.3438 140.6344,41.3438 C140.9313,41.3438 141.2125,41.4844 141.3688,41.75 C141.4625,41.9063 141.4781,42.0313 141.4781,42.4688 L141.4781,43.8906 C141.4781,44.3125 141.4469,44.5 141.3375,44.6563 C141.1656,44.875 140.9,45.0156 140.6344,45.0156 C140.4156,45.0156 140.1813,44.9063 140.0406,44.7656 C139.9,44.6406 139.8688,44.5156 139.8063,44.1094 C139.7125,43.7031 139.5406,43.4844 139.0563,43.2031 C138.5875,42.9531 137.9781,42.7969 137.4,42.7969 C135.6656,42.7969 134.4156,44.1094 134.4156,45.8906 L134.4156,46.9844 C134.4156,48.6875 135.7125,49.7813 137.7594,49.7813 C138.525,49.7813 139.2125,49.6563 139.6344,49.3906 C139.8219,49.2969 139.8219,49.2969 140.275,48.8125 C140.4625,48.625 140.6656,48.5469 140.8844,48.5469 C141.3531,48.5469 141.7438,48.9375 141.7438,49.3906 C141.7438,49.7813 141.4156,50.2344 140.8375,50.6406 C140.0875,51.1875 138.9313,51.4844 137.7125,51.4844 C134.8219,51.4844 132.7125,49.5938 132.7125,47.0156 L132.7125,45.8906 C132.7125,43.1719 134.7125,41.0938 137.3375,41.0938 C138.2125,41.0938 138.8063,41.2344 139.7438,41.6719 Z "/><text fill="#000000" font-family="Courier" font-size="12" lengthAdjust="spacingAndGlyphs" textLength="126" x="152.6" y="51.2711">component_location</text><line style="stroke: #A80036; stroke-width: 1.5;" x1="118" x2="286" y1="62" y2="62"/><text fill="#000000" font-family="Courier" font-size="11" lengthAdjust="spacingAndGlyphs" textLength="158" x="123" y="76.3217">INTEGER ☆ component_id</text><text fill="#000000" font-family="Courier" font-size="11" lengthAdjust="spacingAndGlyphs" textLength="151" x="123" y="87.308">INTEGER ☆ location_id</text><line style="stroke: #A80036; stroke-width: 1.5;" x1="118" x2="286" y1="91.9727" y2="91.9727"/><!--class Department--><rect fill="#FEFECE" filter="url(#ffwsczd53sa2y)" height="91.9453" id="Department" style="stroke: #A80036; stroke-width: 1.5;" width="158" x="719" y="461"/><ellipse cx="759.2" cy="477" fill="#ADD1B2" rx="11" ry="11" style="stroke: #A80036; stroke-width: 1.0;"/><path d="M761.5438,472.6719 L761.7156,472.75 C761.9344,472.4375 762.1375,472.3438 762.4344,472.3438 C762.7313,472.3438 763.0125,472.4844 763.1688,472.75 C763.2625,472.9063 763.2781,473.0313 763.2781,473.4688 L763.2781,474.8906 C763.2781,475.3125 763.2469,475.5 763.1375,475.6563 C762.9656,475.875 762.7,476.0156 762.4344,476.0156 C762.2156,476.0156 761.9813,475.9063 761.8406,475.7656 C761.7,475.6406 761.6688,475.5156 761.6063,475.1094 C761.5125,474.7031 761.3406,474.4844 760.8563,474.2031 C760.3875,473.9531 759.7781,473.7969 759.2,473.7969 C757.4656,473.7969 756.2156,475.1094 756.2156,476.8906 L756.2156,477.9844 C756.2156,479.6875 757.5125,480.7813 759.5594,480.7813 C760.325,480.7813 761.0125,480.6563 761.4344,480.3906 C761.6219,480.2969 761.6219,480.2969 762.075,479.8125 C762.2625,479.625 762.4656,479.5469 762.6844,479.5469 C763.1531,479.5469 763.5438,479.9375 763.5438,480.3906 C763.5438,480.7813 763.2156,481.2344 762.6375,481.6406 C761.8875,482.1875 760.7313,482.4844 759.5125,482.4844 C756.6219,482.4844 754.5125,480.5938 754.5125,478.0156 L754.5125,476.8906 C754.5125,474.1719 756.5125,472.0938 759.1375,472.0938 C760.0125,472.0938 760.6063,472.2344 761.5438,472.6719 Z "/><text fill="#000000" font-family="Courier" font-size="12" lengthAdjust="spacingAndGlyphs" textLength="70" x="778.8" y="482.2711">Department</text><line style="stroke: #A80036; stroke-width: 1.5;" x1="720" x2="876" y1="493" y2="493"/><text fill="#000000" font-family="Courier" font-size="11" lengthAdjust="spacingAndGlyphs" textLength="123" x="739" y="507.3217">INTEGER      ★ id</text><text fill="#000000" font-family="Courier" font-size="11" lengthAdjust="spacingAndGlyphs" textLength="132" x="739" y="518.308">VARCHAR[250] ⚪ code</text><text fill="#000000" font-family="Courier" font-size="11" lengthAdjust="spacingAndGlyphs" textLength="132" x="739" y="529.2943">VARCHAR[150] ⚪ name</text><ellipse cx="730" cy="536.959" fill="none" rx="3" ry="3" style="stroke: #038048; stroke-width: 1.0;"/><text fill="#000000" font-family="Courier" font-size="11" lengthAdjust="spacingAndGlyphs" textLength="63" x="739" y="540.2875">buildings</text><line style="stroke: #A80036; stroke-width: 1.5;" x1="720" x2="876" y1="544.9453" y2="544.9453"/><!--class department_building--><rect fill="#FEFECE" filter="url(#ffwsczd53sa2y)" height="69.9727" id="department_building" style="stroke: #A80036; stroke-width: 1.5;" width="177" x="476.5" y="251"/><ellipse cx="496.9" cy="267" fill="#ADD1B2" rx="11" ry="11" style="stroke: #A80036; stroke-width: 1.0;"/><path d="M499.2438,262.6719 L499.4156,262.75 C499.6344,262.4375 499.8375,262.3438 500.1344,262.3438 C500.4313,262.3438 500.7125,262.4844 500.8688,262.75 C500.9625,262.9063 500.9781,263.0313 500.9781,263.4688 L500.9781,264.8906 C500.9781,265.3125 500.9469,265.5 500.8375,265.6563 C500.6656,265.875 500.4,266.0156 500.1344,266.0156 C499.9156,266.0156 499.6813,265.9063 499.5406,265.7656 C499.4,265.6406 499.3688,265.5156 499.3063,265.1094 C499.2125,264.7031 499.0406,264.4844 498.5563,264.2031 C498.0875,263.9531 497.4781,263.7969 496.9,263.7969 C495.1656,263.7969 493.9156,265.1094 493.9156,266.8906 L493.9156,267.9844 C493.9156,269.6875 495.2125,270.7813 497.2594,270.7813 C498.025,270.7813 498.7125,270.6563 499.1344,270.3906 C499.3219,270.2969 499.3219,270.2969 499.775,269.8125 C499.9625,269.625 500.1656,269.5469 500.3844,269.5469 C500.8531,269.5469 501.2438,269.9375 501.2438,270.3906 C501.2438,270.7813 500.9156,271.2344 500.3375,271.6406 C499.5875,272.1875 498.4313,272.4844 497.2125,272.4844 C494.3219,272.4844 492.2125,270.5938 492.2125,268.0156 L492.2125,266.8906 C492.2125,264.1719 494.2125,262.0938 496.8375,262.0938 C497.7125,262.0938 498.3063,262.2344 499.2438,262.6719 Z "/><text fill="#000000" font-family="Courier" font-size="12" lengthAdjust="spacingAndGlyphs" textLength="133" x="512.1" y="272.2711">department_building</text><line style="stroke: #A80036; stroke-width: 1.5;" x1="477.5" x2="652.5" y1="283" y2="283"/><text fill="#000000" font-family="Courier" font-size="11" lengthAdjust="spacingAndGlyphs" textLength="151" x="482.5" y="297.3217">INTEGER ☆ building_id</text><text fill="#000000" font-family="Courier" font-size="11" lengthAdjust="spacingAndGlyphs" textLength="165" x="482.5" y="308.308">INTEGER ☆ department_id</text><line style="stroke: #A80036; stroke-width: 1.5;" x1="477.5" x2="652.5" y1="312.9727" y2="312.9727"/><!--class Staff--><rect fill="#FEFECE" filter="url(#ffwsczd53sa2y)" height="102.9316" id="Staff" style="stroke: #A80036; stroke-width: 1.5;" width="226" x="943" y="234.5"/><ellipse cx="1034.25" cy="250.5" fill="#ADD1B2" rx="11" ry="11" style="stroke: #A80036; stroke-width: 1.0;"/><path d="M1036.5938,246.1719 L1036.7656,246.25 C1036.9844,245.9375 1037.1875,245.8438 1037.4844,245.8438 C1037.7813,245.8438 1038.0625,245.9844 1038.2188,246.25 C1038.3125,246.4063 1038.3281,246.5313 1038.3281,246.9688 L1038.3281,248.3906 C1038.3281,248.8125 1038.2969,249 1038.1875,249.1563 C1038.0156,249.375 1037.75,249.5156 1037.4844,249.5156 C1037.2656,249.5156 1037.0313,249.4063 1036.8906,249.2656 C1036.75,249.1406 1036.7188,249.0156 1036.6563,248.6094 C1036.5625,248.2031 1036.3906,247.9844 1035.9063,247.7031 C1035.4375,247.4531 1034.8281,247.2969 1034.25,247.2969 C1032.5156,247.2969 1031.2656,248.6094 1031.2656,250.3906 L1031.2656,251.4844 C1031.2656,253.1875 1032.5625,254.2813 1034.6094,254.2813 C1035.375,254.2813 1036.0625,254.1563 1036.4844,253.8906 C1036.6719,253.7969 1036.6719,253.7969 1037.125,253.3125 C1037.3125,253.125 1037.5156,253.0469 1037.7344,253.0469 C1038.2031,253.0469 1038.5938,253.4375 1038.5938,253.8906 C1038.5938,254.2813 1038.2656,254.7344 1037.6875,255.1406 C1036.9375,255.6875 1035.7813,255.9844 1034.5625,255.9844 C1031.6719,255.9844 1029.5625,254.0938 1029.5625,251.5156 L1029.5625,250.3906 C1029.5625,247.6719 1031.5625,245.5938 1034.1875,245.5938 C1035.0625,245.5938 1035.6563,245.7344 1036.5938,246.1719 Z "/><text fill="#000000" font-family="Courier" font-size="12" lengthAdjust="spacingAndGlyphs" textLength="35" x="1054.75" y="255.7711">Staff</text><line style="stroke: #A80036; stroke-width: 1.5;" x1="944" x2="1168" y1="266.5" y2="266.5"/><text fill="#000000" font-family="Courier" font-size="11" lengthAdjust="spacingAndGlyphs" textLength="123" x="963" y="280.8217">INTEGER      ★ id</text><text fill="#000000" font-family="Courier" font-size="11" lengthAdjust="spacingAndGlyphs" textLength="200" x="963" y="291.808">INTEGER      ☆ department_id</text><text fill="#000000" font-family="Courier" font-size="11" lengthAdjust="spacingAndGlyphs" textLength="132" x="963" y="302.7943">VARCHAR[100] ⚪ name</text><text fill="#000000" font-family="Courier" font-size="11" lengthAdjust="spacingAndGlyphs" textLength="160" x="963" y="313.7806">VARCHAR[10]  ⚪ position</text><ellipse cx="954" cy="321.4453" fill="none" rx="3" ry="3" style="stroke: #038048; stroke-width: 1.0;"/><text fill="#000000" font-family="Courier" font-size="11" lengthAdjust="spacingAndGlyphs" textLength="70" x="963" y="324.7738">department</text><line style="stroke: #A80036; stroke-width: 1.5;" x1="944" x2="1168" y1="329.4316" y2="329.4316"/><!--class Subject--><rect fill="#FEFECE" filter="url(#ffwsczd53sa2y)" height="124.9043" id="Subject" style="stroke: #A80036; stroke-width: 1.5;" width="219" x="688.5" y="223.5"/><ellipse cx="769.25" cy="239.5" fill="#ADD1B2" rx="11" ry="11" style="stroke: #A80036; stroke-width: 1.0;"/><path d="M771.5938,235.1719 L771.7656,235.25 C771.9844,234.9375 772.1875,234.8438 772.4844,234.8438 C772.7813,234.8438 773.0625,234.9844 773.2188,235.25 C773.3125,235.4063 773.3281,235.5313 773.3281,235.9688 L773.3281,237.3906 C773.3281,237.8125 773.2969,238 773.1875,238.1563 C773.0156,238.375 772.75,238.5156 772.4844,238.5156 C772.2656,238.5156 772.0313,238.4063 771.8906,238.2656 C771.75,238.1406 771.7188,238.0156 771.6563,237.6094 C771.5625,237.2031 771.3906,236.9844 770.9063,236.7031 C770.4375,236.4531 769.8281,236.2969 769.25,236.2969 C767.5156,236.2969 766.2656,237.6094 766.2656,239.3906 L766.2656,240.4844 C766.2656,242.1875 767.5625,243.2813 769.6094,243.2813 C770.375,243.2813 771.0625,243.1563 771.4844,242.8906 C771.6719,242.7969 771.6719,242.7969 772.125,242.3125 C772.3125,242.125 772.5156,242.0469 772.7344,242.0469 C773.2031,242.0469 773.5938,242.4375 773.5938,242.8906 C773.5938,243.2813 773.2656,243.7344 772.6875,244.1406 C771.9375,244.6875 770.7813,244.9844 769.5625,244.9844 C766.6719,244.9844 764.5625,243.0938 764.5625,240.5156 L764.5625,239.3906 C764.5625,236.6719 766.5625,234.5938 769.1875,234.5938 C770.0625,234.5938 770.6563,234.7344 771.5938,235.1719 Z "/><text fill="#000000" font-family="Courier" font-size="12" lengthAdjust="spacingAndGlyphs" textLength="49" x="789.75" y="244.7711">Subject</text><line style="stroke: #A80036; stroke-width: 1.5;" x1="689.5" x2="906.5" y1="255.5" y2="255.5"/><text fill="#000000" font-family="Courier" font-size="11" lengthAdjust="spacingAndGlyphs" textLength="116" x="708.5" y="269.8217">INTEGER     ★ id</text><text fill="#000000" font-family="Courier" font-size="11" lengthAdjust="spacingAndGlyphs" textLength="193" x="708.5" y="280.808">INTEGER     ☆ department_id</text><text fill="#000000" font-family="Courier" font-size="11" lengthAdjust="spacingAndGlyphs" textLength="125" x="708.5" y="291.7943">VARCHAR[50] ⚪ code</text><text fill="#000000" font-family="Courier" font-size="11" lengthAdjust="spacingAndGlyphs" textLength="181" x="708.5" y="302.7806">INTEGER     ⚪ lecture_time</text><text fill="#000000" font-family="Courier" font-size="11" lengthAdjust="spacingAndGlyphs" textLength="125" x="708.5" y="313.767">VARCHAR[50] ⚪ name</text><ellipse cx="699.5" cy="321.4316" fill="none" rx="3" ry="3" style="stroke: #038048; stroke-width: 1.0;"/><text fill="#000000" font-family="Courier" font-size="11" lengthAdjust="spacingAndGlyphs" textLength="70" x="708.5" y="324.7601">department</text><ellipse cx="699.5" cy="332.4316" fill="none" rx="3" ry="3" style="stroke: #038048; stroke-width: 1.0;"/><text fill="#000000" font-family="Courier" font-size="11" lengthAdjust="spacingAndGlyphs" textLength="56" x="708.5" y="335.7601">location</text><line style="stroke: #A80036; stroke-width: 1.5;" x1="689.5" x2="906.5" y1="340.4043" y2="340.4043"/><!--class location_subject--><rect fill="#FEFECE" filter="url(#ffwsczd53sa2y)" height="69.9727" id="location_subject" style="stroke: #A80036; stroke-width: 1.5;" width="163" x="484.5" y="30"/><ellipse cx="508.05" cy="46" fill="#ADD1B2" rx="11" ry="11" style="stroke: #A80036; stroke-width: 1.0;"/><path d="M510.3938,41.6719 L510.5656,41.75 C510.7844,41.4375 510.9875,41.3438 511.2844,41.3438 C511.5813,41.3438 511.8625,41.4844 512.0188,41.75 C512.1125,41.9063 512.1281,42.0313 512.1281,42.4688 L512.1281,43.8906 C512.1281,44.3125 512.0969,44.5 511.9875,44.6563 C511.8156,44.875 511.55,45.0156 511.2844,45.0156 C511.0656,45.0156 510.8313,44.9063 510.6906,44.7656 C510.55,44.6406 510.5188,44.5156 510.4563,44.1094 C510.3625,43.7031 510.1906,43.4844 509.7063,43.2031 C509.2375,42.9531 508.6281,42.7969 508.05,42.7969 C506.3156,42.7969 505.0656,44.1094 505.0656,45.8906 L505.0656,46.9844 C505.0656,48.6875 506.3625,49.7813 508.4094,49.7813 C509.175,49.7813 509.8625,49.6563 510.2844,49.3906 C510.4719,49.2969 510.4719,49.2969 510.925,48.8125 C511.1125,48.625 511.3156,48.5469 511.5344,48.5469 C512.0031,48.5469 512.3938,48.9375 512.3938,49.3906 C512.3938,49.7813 512.0656,50.2344 511.4875,50.6406 C510.7375,51.1875 509.5813,51.4844 508.3625,51.4844 C505.4719,51.4844 503.3625,49.5938 503.3625,47.0156 L503.3625,45.8906 C503.3625,43.1719 505.3625,41.0938 507.9875,41.0938 C508.8625,41.0938 509.4563,41.2344 510.3938,41.6719 Z "/><text fill="#000000" font-family="Courier" font-size="12" lengthAdjust="spacingAndGlyphs" textLength="112" x="523.95" y="51.2711">location_subject</text><line style="stroke: #A80036; stroke-width: 1.5;" x1="485.5" x2="646.5" y1="62" y2="62"/><text fill="#000000" font-family="Courier" font-size="11" lengthAdjust="spacingAndGlyphs" textLength="151" x="490.5" y="76.3217">INTEGER ☆ location_id</text><text fill="#000000" font-family="Courier" font-size="11" lengthAdjust="spacingAndGlyphs" textLength="144" x="490.5" y="87.308">INTEGER ☆ subject_id</text><line style="stroke: #A80036; stroke-width: 1.5;" x1="485.5" x2="646.5" y1="91.9727" y2="91.9727"/><!--class User--><rect fill="#FEFECE" filter="url(#ffwsczd53sa2y)" height="113.918" id="User" style="stroke: #A80036; stroke-width: 1.5;" width="179" x="1218.5" y="8"/><ellipse cx="1289.75" cy="24" fill="#ADD1B2" rx="11" ry="11" style="stroke: #A80036; stroke-width: 1.0;"/><path d="M1292.0938,19.6719 L1292.2656,19.75 C1292.4844,19.4375 1292.6875,19.3438 1292.9844,19.3438 C1293.2813,19.3438 1293.5625,19.4844 1293.7188,19.75 C1293.8125,19.9063 1293.8281,20.0313 1293.8281,20.4688 L1293.8281,21.8906 C1293.8281,22.3125 1293.7969,22.5 1293.6875,22.6563 C1293.5156,22.875 1293.25,23.0156 1292.9844,23.0156 C1292.7656,23.0156 1292.5313,22.9063 1292.3906,22.7656 C1292.25,22.6406 1292.2188,22.5156 1292.1563,22.1094 C1292.0625,21.7031 1291.8906,21.4844 1291.4063,21.2031 C1290.9375,20.9531 1290.3281,20.7969 1289.75,20.7969 C1288.0156,20.7969 1286.7656,22.1094 1286.7656,23.8906 L1286.7656,24.9844 C1286.7656,26.6875 1288.0625,27.7813 1290.1094,27.7813 C1290.875,27.7813 1291.5625,27.6563 1291.9844,27.3906 C1292.1719,27.2969 1292.1719,27.2969 1292.625,26.8125 C1292.8125,26.625 1293.0156,26.5469 1293.2344,26.5469 C1293.7031,26.5469 1294.0938,26.9375 1294.0938,27.3906 C1294.0938,27.7813 1293.7656,28.2344 1293.1875,28.6406 C1292.4375,29.1875 1291.2813,29.4844 1290.0625,29.4844 C1287.1719,29.4844 1285.0625,27.5938 1285.0625,25.0156 L1285.0625,23.8906 C1285.0625,21.1719 1287.0625,19.0938 1289.6875,19.0938 C1290.5625,19.0938 1291.1563,19.2344 1292.0938,19.6719 Z "/><text fill="#000000" font-family="Courier" font-size="12" lengthAdjust="spacingAndGlyphs" textLength="28" x="1310.25" y="29.2711">User</text><line style="stroke: #A80036; stroke-width: 1.5;" x1="1219.5" x2="1396.5" y1="40" y2="40"/><text fill="#000000" font-family="Courier" font-size="11" lengthAdjust="spacingAndGlyphs" textLength="123" x="1224.5" y="54.3217">INTEGER      ★ id</text><text fill="#000000" font-family="Courier" font-size="11" lengthAdjust="spacingAndGlyphs" textLength="158" x="1224.5" y="65.308">INTEGER      ☆ role_id</text><text fill="#000000" font-family="Courier" font-size="11" lengthAdjust="spacingAndGlyphs" textLength="139" x="1224.5" y="76.2943">VARCHAR[100] ⚪ email</text><text fill="#000000" font-family="Courier" font-size="11" lengthAdjust="spacingAndGlyphs" textLength="167" x="1224.5" y="87.2806">VARCHAR[150] ⚪ full_name</text><text fill="#000000" font-family="Courier" font-size="11" lengthAdjust="spacingAndGlyphs" textLength="132" x="1224.5" y="98.267">VARCHAR[50]  ⚪ name</text><text fill="#000000" font-family="Courier" font-size="11" lengthAdjust="spacingAndGlyphs" textLength="160" x="1224.5" y="109.2533">VARCHAR[30]  ⚪ password</text><line style="stroke: #A80036; stroke-width: 1.5;" x1="1219.5" x2="1396.5" y1="113.918" y2="113.918"/><!--class Role--><rect fill="#FEFECE" filter="url(#ffwsczd53sa2y)" height="91.9453" id="Role" style="stroke: #A80036; stroke-width: 1.5;" width="207" x="1204.5" y="240"/><ellipse cx="1289.75" cy="256" fill="#ADD1B2" rx="11" ry="11" style="stroke: #A80036; stroke-width: 1.0;"/><path d="M1292.0938,251.6719 L1292.2656,251.75 C1292.4844,251.4375 1292.6875,251.3438 1292.9844,251.3438 C1293.2813,251.3438 1293.5625,251.4844 1293.7188,251.75 C1293.8125,251.9063 1293.8281,252.0313 1293.8281,252.4688 L1293.8281,253.8906 C1293.8281,254.3125 1293.7969,254.5 1293.6875,254.6563 C1293.5156,254.875 1293.25,255.0156 1292.9844,255.0156 C1292.7656,255.0156 1292.5313,254.9063 1292.3906,254.7656 C1292.25,254.6406 1292.2188,254.5156 1292.1563,254.1094 C1292.0625,253.7031 1291.8906,253.4844 1291.4063,253.2031 C1290.9375,252.9531 1290.3281,252.7969 1289.75,252.7969 C1288.0156,252.7969 1286.7656,254.1094 1286.7656,255.8906 L1286.7656,256.9844 C1286.7656,258.6875 1288.0625,259.7813 1290.1094,259.7813 C1290.875,259.7813 1291.5625,259.6563 1291.9844,259.3906 C1292.1719,259.2969 1292.1719,259.2969 1292.625,258.8125 C1292.8125,258.625 1293.0156,258.5469 1293.2344,258.5469 C1293.7031,258.5469 1294.0938,258.9375 1294.0938,259.3906 C1294.0938,259.7813 1293.7656,260.2344 1293.1875,260.6406 C1292.4375,261.1875 1291.2813,261.4844 1290.0625,261.4844 C1287.1719,261.4844 1285.0625,259.5938 1285.0625,257.0156 L1285.0625,255.8906 C1285.0625,253.1719 1287.0625,251.0938 1289.6875,251.0938 C1290.5625,251.0938 1291.1563,251.2344 1292.0938,251.6719 Z "/><text fill="#000000" font-family="Courier" font-size="12" lengthAdjust="spacingAndGlyphs" textLength="28" x="1310.25" y="261.2711">Role</text><line style="stroke: #A80036; stroke-width: 1.5;" x1="1205.5" x2="1410.5" y1="272" y2="272"/><text fill="#000000" font-family="Courier" font-size="11" lengthAdjust="spacingAndGlyphs" textLength="123" x="1224.5" y="286.3217">INTEGER      ★ id</text><text fill="#000000" font-family="Courier" font-size="11" lengthAdjust="spacingAndGlyphs" textLength="181" x="1224.5" y="297.308">VARCHAR[200] ⚪ Description</text><text fill="#000000" font-family="Courier" font-size="11" lengthAdjust="spacingAndGlyphs" textLength="132" x="1224.5" y="308.2943">VARCHAR[50]  ⚪ name</text><ellipse cx="1215.5" cy="315.959" fill="none" rx="3" ry="3" style="stroke: #038048; stroke-width: 1.0;"/><text fill="#000000" font-family="Courier" font-size="11" lengthAdjust="spacingAndGlyphs" textLength="63" x="1224.5" y="319.2875">locations</text><line style="stroke: #A80036; stroke-width: 1.5;" x1="1205.5" x2="1410.5" y1="323.9453" y2="323.9453"/><!--class role_locations--><rect fill="#FEFECE" filter="url(#ffwsczd53sa2y)" height="69.9727" id="role_locations" style="stroke: #A80036; stroke-width: 1.5;" width="163" x="899.5" y="30"/><ellipse cx="929.35" cy="46" fill="#ADD1B2" rx="11" ry="11" style="stroke: #A80036; stroke-width: 1.0;"/><path d="M931.6938,41.6719 L931.8656,41.75 C932.0844,41.4375 932.2875,41.3438 932.5844,41.3438 C932.8813,41.3438 933.1625,41.4844 933.3188,41.75 C933.4125,41.9063 933.4281,42.0313 933.4281,42.4688 L933.4281,43.8906 C933.4281,44.3125 933.3969,44.5 933.2875,44.6563 C933.1156,44.875 932.85,45.0156 932.5844,45.0156 C932.3656,45.0156 932.1313,44.9063 931.9906,44.7656 C931.85,44.6406 931.8188,44.5156 931.7563,44.1094 C931.6625,43.7031 931.4906,43.4844 931.0063,43.2031 C930.5375,42.9531 929.9281,42.7969 929.35,42.7969 C927.6156,42.7969 926.3656,44.1094 926.3656,45.8906 L926.3656,46.9844 C926.3656,48.6875 927.6625,49.7813 929.7094,49.7813 C930.475,49.7813 931.1625,49.6563 931.5844,49.3906 C931.7719,49.2969 931.7719,49.2969 932.225,48.8125 C932.4125,48.625 932.6156,48.5469 932.8344,48.5469 C933.3031,48.5469 933.6938,48.9375 933.6938,49.3906 C933.6938,49.7813 933.3656,50.2344 932.7875,50.6406 C932.0375,51.1875 930.8813,51.4844 929.6625,51.4844 C926.7719,51.4844 924.6625,49.5938 924.6625,47.0156 L924.6625,45.8906 C924.6625,43.1719 926.6625,41.0938 929.2875,41.0938 C930.1625,41.0938 930.7563,41.2344 931.6938,41.6719 Z "/><text fill="#000000" font-family="Courier" font-size="12" lengthAdjust="spacingAndGlyphs" textLength="98" x="946.65" y="51.2711">role_locations</text><line style="stroke: #A80036; stroke-width: 1.5;" x1="900.5" x2="1061.5" y1="62" y2="62"/><text fill="#000000" font-family="Courier" font-size="11" lengthAdjust="spacingAndGlyphs" textLength="151" x="905.5" y="76.3217">INTEGER ☆ location_id</text><text fill="#000000" font-family="Courier" font-size="11" lengthAdjust="spacingAndGlyphs" textLength="123" x="905.5" y="87.308">INTEGER ☆ role_id</text><line style="stroke: #A80036; stroke-width: 1.5;" x1="900.5" x2="1061.5" y1="91.9727" y2="91.9727"/><!--link Floor to Building--><path d="M388.46,575.419 C398.807,592.244 409.85,610.202 420.019,626.739 " fill="none" id="Floor-Building" style="stroke: #A80036; stroke-width: 1.0;"/><polygon fill="#FFFFFF" points="426.9,637.928,427.164,630.7217,420.6136,627.7064,420.3496,634.9127,426.9,637.928" style="stroke: #A80036; stroke-width: 1.0;"/><polygon fill="#A80036" points="381.513,564.122,382.8206,573.8837,384.1324,568.381,389.635,569.6927,381.513,564.122" style="stroke: #A80036; stroke-width: 1.0;"/><line style="stroke: #A80036; stroke-width: 1.0;" x1="384.1324" x2="388.3225" y1="568.381" y2="575.1955"/><text fill="#000000" font-family="Courier" font-size="13" lengthAdjust="spacingAndGlyphs" textLength="88" x="407" y="607.1996">building_id</text><!--link Location to Floor--><path d="M332.583,389.062 C334.583,405.287 336.611,421.73 338.488,436.959 " fill="none" id="Location-Floor" style="stroke: #A80036; stroke-width: 1.0;"/><polygon fill="#FFFFFF" points="340.095,449.993,343.3312,443.5488,338.6274,438.0831,335.3912,444.5273,340.095,449.993" style="stroke: #A80036; stroke-width: 1.0;"/><polygon fill="#A80036" points="330.982,376.076,328.1138,385.498,331.5941,381.0384,336.0536,384.5187,330.982,376.076" style="stroke: #A80036; stroke-width: 1.0;"/><line style="stroke: #A80036; stroke-width: 1.0;" x1="331.5941" x2="332.573" y1="381.0384" y2="388.978"/><text fill="#000000" font-family="Courier" font-size="13" lengthAdjust="spacingAndGlyphs" textLength="64" x="337" y="419.1996">floor_id</text><!--link component_location to Component--><path d="M160.126,110.574 C149.629,123.295 139.071,137.623 131,152 C116.893,177.127 106.021,207.331 98.3974,232.601 " fill="none" id="component_location-Component" style="stroke: #A80036; stroke-width: 1.0;"/><polygon fill="#FFFFFF" points="94.7068,245.313,100.2215,240.6667,98.0535,233.7891,92.5389,238.4355,94.7068,245.313" style="stroke: #A80036; stroke-width: 1.0;"/><polygon fill="#A80036" points="168.873,100.301,159.9927,104.5602,165.6315,104.1079,166.0837,109.7466,168.873,100.301" style="stroke: #A80036; stroke-width: 1.0;"/><line style="stroke: #A80036; stroke-width: 1.0;" x1="165.6315" x2="160.4455" y1="104.1079" y2="110.199"/><text fill="#000000" font-family="Courier" font-size="13" lengthAdjust="spacingAndGlyphs" textLength="96" x="132" y="165.1996">component_id</text><!--link component_location to Location--><path d="M226.762,111.957 C238.125,133.046 252.079,158.943 265.697,184.217 " fill="none" id="component_location-Location" style="stroke: #A80036; stroke-width: 1.0;"/><polygon fill="#FFFFFF" points="271.92,195.766,272.5956,188.5866,266.2284,185.2017,265.5527,192.381,271.92,195.766" style="stroke: #A80036; stroke-width: 1.0;"/><polygon fill="#A80036" points="220.438,100.219,221.1848,110.0395,222.8093,104.6209,228.2279,106.2454,220.438,100.219" style="stroke: #A80036; stroke-width: 1.0;"/><line style="stroke: #A80036; stroke-width: 1.0;" x1="222.8093" x2="226.604" y1="104.6209" y2="111.663"/><text fill="#000000" font-family="Courier" font-size="13" lengthAdjust="spacingAndGlyphs" textLength="88" x="255" y="165.1996">location_id</text><!--link department_building to Department--><path d="M600.99,331.45 C623.619,358.29 654.103,392.503 684,420 C696.095,431.124 709.569,442.252 722.897,452.638 " fill="none" id="department_building-Department" style="stroke: #A80036; stroke-width: 1.0;"/><polygon fill="#FFFFFF" points="733.525,460.793,731.1999,453.967,724.0047,453.4879,726.3298,460.3139,733.525,460.793" style="stroke: #A80036; stroke-width: 1.0;"/><polygon fill="#A80036" points="592.413,321.184,595.1136,330.6554,595.6187,325.0211,601.253,325.5262,592.413,321.184" style="stroke: #A80036; stroke-width: 1.0;"/><line style="stroke: #A80036; stroke-width: 1.0;" x1="595.6187" x2="600.7485" y1="325.0211" y2="331.161"/><text fill="#000000" font-family="Courier" font-size="13" lengthAdjust="spacingAndGlyphs" textLength="104" x="685" y="419.1996">department_id</text><!--link department_building to Building--><path d="M560.934,334.429 C554.362,398.247 538.484,514.539 504,608 C501.817,613.918 499.224,619.91 496.398,625.816 " fill="none" id="department_building-Building" style="stroke: #A80036; stroke-width: 1.0;"/><polygon fill="#FFFFFF" points="490.327,637.764,496.6111,634.227,495.7631,627.0659,489.479,630.6029,490.327,637.764" style="stroke: #A80036; stroke-width: 1.0;"/><polygon fill="#A80036" points="562.234,321.259,557.3692,329.8225,561.7428,326.2348,565.3305,330.6084,562.234,321.259" style="stroke: #A80036; stroke-width: 1.0;"/><line style="stroke: #A80036; stroke-width: 1.0;" x1="561.7428" x2="560.957" y1="326.2348" y2="334.196"/><text fill="#000000" font-family="Courier" font-size="13" lengthAdjust="spacingAndGlyphs" textLength="88" x="546" y="513.1996">building_id</text><!--link Staff to Department--><path d="M994.089,346.695 C969.095,370.125 939.667,396.885 912,420 C898.886,430.957 884.569,442.248 870.648,452.899 " fill="none" id="Staff-Department" style="stroke: #A80036; stroke-width: 1.0;"/><polygon fill="#FFFFFF" points="860.106,460.904,867.3035,460.4616,869.6634,453.6476,862.4659,454.09,860.106,460.904" style="stroke: #A80036; stroke-width: 1.0;"/><polygon fill="#A80036" points="1003.793,337.557,994.4984,340.8145,1000.1527,340.9846,999.9826,346.6389,1003.793,337.557" style="stroke: #A80036; stroke-width: 1.0;"/><line style="stroke: #A80036; stroke-width: 1.0;" x1="1000.1527" x2="994.329" y1="340.9846" y2="346.4695"/><text fill="#000000" font-family="Courier" font-size="13" lengthAdjust="spacingAndGlyphs" textLength="104" x="930" y="419.1996">department_id</text><!--link Subject to Department--><path d="M798,361.883 C798,389.897 798,421.279 798,447.589 " fill="none" id="Subject-Department" style="stroke: #A80036; stroke-width: 1.0;"/><polygon fill="#FFFFFF" points="798,460.841,802,454.841,798,448.841,794,454.841,798,460.841" style="stroke: #A80036; stroke-width: 1.0;"/><polygon fill="#A80036" points="798,348.587,794,357.587,798,353.587,802,357.587,798,348.587" style="stroke: #A80036; stroke-width: 1.0;"/><line style="stroke: #A80036; stroke-width: 1.0;" x1="798" x2="798" y1="353.587" y2="361.5865"/><text fill="#000000" font-family="Courier" font-size="13" lengthAdjust="spacingAndGlyphs" textLength="104" x="799" y="419.1996">department_id</text><!--link location_subject to Subject--><path d="M612.055,109.474 C643.708,139.354 686.45,179.7 722.973,214.177 " fill="none" id="location_subject-Subject" style="stroke: #A80036; stroke-width: 1.0;"/><polygon fill="#FFFFFF" points="732.603,223.268,730.9855,216.2406,723.8766,215.0308,725.4941,222.0582,732.603,223.268" style="stroke: #A80036; stroke-width: 1.0;"/><polygon fill="#A80036" points="602.25,100.219,606.0484,109.3059,605.8857,103.6514,611.5402,103.4888,602.25,100.219" style="stroke: #A80036; stroke-width: 1.0;"/><line style="stroke: #A80036; stroke-width: 1.0;" x1="605.8857" x2="611.7035" y1="103.6514" y2="109.1425"/><text fill="#000000" font-family="Courier" font-size="13" lengthAdjust="spacingAndGlyphs" textLength="80" x="670" y="165.1996">subject_id</text><!--link location_subject to Location--><path d="M517.708,108.992 C492.615,131.331 460.844,159.614 430.152,186.938 " fill="none" id="location_subject-Location" style="stroke: #A80036; stroke-width: 1.0;"/><polygon fill="#FFFFFF" points="420.235,195.766,427.3762,194.764,429.1979,187.7868,422.0567,188.7888,420.235,195.766" style="stroke: #A80036; stroke-width: 1.0;"/><polygon fill="#A80036" points="527.562,100.219,518.1801,103.2157,523.8275,103.5436,523.4996,109.191,527.562,100.219" style="stroke: #A80036; stroke-width: 1.0;"/><line style="stroke: #A80036; stroke-width: 1.0;" x1="523.8275" x2="517.8525" y1="103.5436" y2="108.8625"/><text fill="#000000" font-family="Courier" font-size="13" lengthAdjust="spacingAndGlyphs" textLength="88" x="467" y="165.1996">location_id</text><!--link User to Role--><path d="M1308,135.339 C1308,164.649 1308,198.416 1308,226.449 " fill="none" id="User-Role" style="stroke: #A80036; stroke-width: 1.0;"/><polygon fill="#FFFFFF" points="1308,239.706,1312,233.706,1308,227.706,1304,233.706,1308,239.706" style="stroke: #A80036; stroke-width: 1.0;"/><polygon fill="#A80036" points="1308,122.114,1304,131.114,1308,127.114,1312,131.114,1308,122.114" style="stroke: #A80036; stroke-width: 1.0;"/><line style="stroke: #A80036; stroke-width: 1.0;" x1="1308" x2="1308" y1="127.114" y2="135.114"/><text fill="#000000" font-family="Courier" font-size="13" lengthAdjust="spacingAndGlyphs" textLength="56" x="1309" y="165.1996">role_id</text><!--link role_locations to Role--><path d="M1047.95,106.924 C1088.35,131.998 1140.62,165.109 1186,196 C1202.71,207.377 1220.42,219.974 1237.02,232.026 " fill="none" id="role_locations-Role" style="stroke: #A80036; stroke-width: 1.0;"/><polygon fill="#FFFFFF" points="1247.74,239.848,1245.2481,233.0811,1238.0434,232.7787,1240.5352,239.5455,1247.74,239.848" style="stroke: #A80036; stroke-width: 1.0;"/><polygon fill="#A80036" points="1036.88,100.073,1042.4266,108.2115,1041.1312,102.7049,1046.6378,101.4095,1036.88,100.073" style="stroke: #A80036; stroke-width: 1.0;"/><line style="stroke: #A80036; stroke-width: 1.0;" x1="1041.1312" x2="1047.935" y1="102.7049" y2="106.9165"/><text fill="#000000" font-family="Courier" font-size="13" lengthAdjust="spacingAndGlyphs" textLength="56" x="1138" y="165.1996">role_id</text><!--link role_locations to Location--><path d="M908.259,105.988 C865.949,127.383 810.883,152.118 759,166 C629.555,200.636 585.567,151.997 459,196 C457.139,196.647 455.278,197.323 453.418,198.027 " fill="none" id="role_locations-Location" style="stroke: #A80036; stroke-width: 1.0;"/><polygon fill="#FFFFFF" points="441.172,203.048,448.2409,204.473,452.2751,198.496,445.2062,197.071,441.172,203.048" style="stroke: #A80036; stroke-width: 1.0;"/><polygon fill="#A80036" points="919.841,100.054,910.0071,100.5974,915.3909,102.3337,913.6547,107.7175,919.841,100.054" style="stroke: #A80036; stroke-width: 1.0;"/><line style="stroke: #A80036; stroke-width: 1.0;" x1="915.3909" x2="908.2715" y1="102.3337" y2="105.9815"/><text fill="#000000" font-family="Courier" font-size="13" lengthAdjust="spacingAndGlyphs" textLength="88" x="798" y="165.1996">location_id</text><text fill="#888888" font-family="Courier" font-size="10" lengthAdjust="spacingAndGlyphs" textLength="174" x="1256" y="760.3898">generated by sadisplay v0.4.9</text><!--
@startuml
skinparam defaultFontName Courier

Class Building {
    INTEGER      ★ id          
    BOOLEAN      ⚪ availability
    VARCHAR[40]  ⚪ code        
    VARCHAR[150] ⚪ description 
    +            departments   
}

Class Floor {
    INTEGER      ★ id          
    INTEGER      ☆ building_id 
    BOOLEAN      ⚪ availability
    VARCHAR[250] ⚪ code        
    VARCHAR[150] ⚪ description 
    +            building      
}

Class Location {
    INTEGER      ★ id              
    INTEGER      ☆ floor_id        
    BOOLEAN      ⚪ availability    
    VARCHAR[250] ⚪ code            
    INTEGER      ⚪ color           
    VARCHAR[150] ⚪ description     
    INTEGER      ⚪ exam_capacity   
    INTEGER      ⚪ regular_capacity
    +            compnents         
    +            floor             
    +            roles             
    +            subjects          
}

Class Component {
    INTEGER      ★ id     
    VARCHAR[150] ⚪ name   
    +            locations
}

Class component_location {
    INTEGER ☆ component_id
    INTEGER ☆ location_id 
}

Class Department {
    INTEGER      ★ id     
    VARCHAR[250] ⚪ code   
    VARCHAR[150] ⚪ name   
    +            buildings
}

Class department_building {
    INTEGER ☆ building_id  
    INTEGER ☆ department_id
}

Class Staff {
    INTEGER      ★ id           
    INTEGER      ☆ department_id
    VARCHAR[100] ⚪ name         
    VARCHAR[10]  ⚪ position     
    +            department     
}

Class Subject {
    INTEGER     ★ id           
    INTEGER     ☆ department_id
    VARCHAR[50] ⚪ code         
    INTEGER     ⚪ lecture_time 
    VARCHAR[50] ⚪ name         
    +           department     
    +           location       
}

Class location_subject {
    INTEGER ☆ location_id
    INTEGER ☆ subject_id 
}

Class User {
    INTEGER      ★ id       
    INTEGER      ☆ role_id  
    VARCHAR[100] ⚪ email    
    VARCHAR[150] ⚪ full_name
    VARCHAR[50]  ⚪ name     
    VARCHAR[30]  ⚪ password 
}

Class Role {
    INTEGER      ★ id         
    VARCHAR[200] ⚪ Description
    VARCHAR[50]  ⚪ name       
    +            locations    
}

Class role_locations {
    INTEGER ☆ location_id
    INTEGER ☆ role_id    
}

Floor <- -o Building: building_id

Location <- -o Floor: floor_id

component_location <- -o Component: component_id

component_location <- -o Location: location_id

department_building <- -o Department: department_id

department_building <- -o Building: building_id

Staff <- -o Department: department_id

Subject <- -o Department: department_id

location_subject <- -o Subject: subject_id

location_subject <- -o Location: location_id

User <- -o Role: role_id

role_locations <- -o Role: role_id

role_locations <- -o Location: location_id

right footer generated by sadisplay v0.4.9
@enduml

PlantUML version 1.2019.03(Sun Mar 10 11:04:44 UTC 2019)
(GPL source distribution)
Java Runtime: Java(TM) SE Runtime Environment
JVM: Java HotSpot(TM) 64-Bit Server VM
Java Version: 1.7.0_25-b15
Operating System: Linux
Default Encoding: UTF-8
Language: en
Country: US
--></g></svg>